<svg id="Layer_1" data-name="Layer 1" xmlns="http://www.w3.org/2000/svg" viewBox="0 0 202.15 202.15"><defs><style>.cls-1{fill:none;stroke:#000;stroke-miterlimit:10;}.cls-2{fill:#edba88;}.cls-3{fill:#f4f498;}</style></defs><title>palladium1</title><path class="cls-1" d="M236.84,142.28a97,97,0,1,0-97,97.35A97.12,97.12,0,0,0,236.84,142.28Z" transform="translate(-38.53 -41.45)"/><path class="cls-1" d="M139.84,220.16a77.88,77.88,0,1,1,77.6-77.88A77.69,77.69,0,0,1,139.84,220.16Z" transform="translate(-38.53 -41.45)"/><path class="cls-1" d="M198,142.28a58.2,58.2,0,1,0-58.2,58.41A58.27,58.27,0,0,0,198,142.28Z" transform="translate(-38.53 -41.45)"/><path class="cls-1" d="M139.84,181.22a38.94,38.94,0,1,1,38.8-38.94A38.85,38.85,0,0,1,139.84,181.22Z" transform="translate(-38.53 -41.45)"/><circle class="cls-2" cx="3.83" cy="100.6" r="3.83"/><circle class="cls-2" cx="11.5" cy="64.19" r="3.83"/><circle class="cls-2" cx="32.57" cy="32.57" r="3.83"/><circle class="cls-2" cx="64.19" cy="11.5" r="3.83"/><circle class="cls-2" cx="198.32" cy="100.6" r="3.83"/><circle class="cls-2" cx="190.66" cy="64.19" r="3.83"/><circle class="cls-2" cx="169.58" cy="32.57" r="3.83"/><circle class="cls-2" cx="137.96" cy="11.5" r="3.83"/><circle class="cls-2" cx="119.76" cy="5.75" r="3.83"/><circle class="cls-3" cx="101.55" cy="3.83" r="3.83"/><circle class="cls-2" cx="11.5" cy="137.96" r="3.83"/><circle class="cls-2" cx="32.57" cy="169.58" r="3.83"/><circle class="cls-2" cx="64.19" cy="190.66" r="3.83"/><circle class="cls-2" cx="190.66" cy="137.96" r="3.83"/><circle class="cls-2" cx="169.58" cy="169.58" r="3.83"/><circle class="cls-2" cx="137.96" cy="190.66" r="3.83"/><circle class="cls-2" cx="119.76" cy="196.4" r="3.83"/><circle class="cls-2" cx="101.55" cy="198.32" r="3.83"/><circle class="cls-2" cx="71.85" cy="28.74" r="3.83"/><circle class="cls-2" cx="101.55" cy="22.99" r="3.83"/><circle class="cls-2" cx="131.25" cy="28.74" r="3.83"/><circle class="cls-2" cx="156.16" cy="45.99" r="3.83"/><circle class="cls-2" cx="101.55" cy="3.83" r="3.83"/><circle class="cls-2" cx="46.95" cy="45.99" r="3.83"/><circle class="cls-2" cx="29.7" cy="70.9" r="3.83"/><circle class="cls-2" cx="172.45" cy="71.85" r="3.83"/><circle class="cls-2" cx="179.16" cy="100.6" r="3.83"/><circle class="cls-2" cx="173.41" cy="131.25" r="3.83"/><circle class="cls-2" cx="23.95" cy="100.6" r="3.83"/><circle class="cls-2" cx="29.7" cy="130.3" r="3.83"/><circle class="cls-2" cx="45.99" cy="156.16" r="3.83"/><circle class="cls-2" cx="71.85" cy="172.45" r="3.83"/><circle class="cls-2" cx="101.55" cy="179.16" r="3.83"/><circle class="cls-2" cx="131.25" cy="172.45" r="3.83"/><circle class="cls-2" cx="156.16" cy="156.16" r="3.83"/><circle class="cls-2" cx="86.23" cy="177.24" r="3.83"/><circle class="cls-2" cx="115.93" cy="24.91" r="3.83"/><circle class="cls-2" cx="101.55" cy="42.15" r="3.83"/><circle class="cls-2" cx="101.55" cy="159.04" r="3.83"/><circle class="cls-2" cx="43.11" cy="101.55" r="3.83"/><circle class="cls-2" cx="160" cy="101.55" r="3.83"/><circle class="cls-2" cx="60.36" cy="59.4" r="3.83"/><circle class="cls-2" cx="142.75" cy="59.4" r="3.83"/><circle class="cls-2" cx="60.36" cy="141.79" r="3.83"/><circle class="cls-2" cx="142.75" cy="142.75" r="3.83"/><circle class="cls-2" cx="62.27" cy="100.6" r="3.83"/><circle class="cls-2" cx="139.88" cy="101.55" r="3.83"/><circle class="cls-2" cx="100.97" cy="101.05" r="15.5"/></svg>