<svg id="Layer_1" data-name="Layer 1" xmlns="http://www.w3.org/2000/svg" viewBox="0 0 275.46 273.57"><defs><style>.cls-1{fill:none;stroke:#000;stroke-miterlimit:10;}.cls-2{fill:#f4f498;}</style></defs><title>gold1</title><path class="cls-1" d="M275.64,142.28C275.64,67,214.9,6,139.84,6S4,67,4,142.28s60.74,136.28,135.8,136.28S275.64,217.61,275.64,142.28Z" transform="translate(-3.54 -5.5)"/><path class="cls-1" d="M139.84,259.1c-64.34,0-116.4-52.25-116.4-116.82S75.5,25.47,139.84,25.47s116.4,52.25,116.4,116.82S204.18,259.1,139.84,259.1Z" transform="translate(-3.54 -5.5)"/><path class="cls-1" d="M236.84,142.28a97,97,0,1,0-97,97.35A97.12,97.12,0,0,0,236.84,142.28Z" transform="translate(-3.54 -5.5)"/><path class="cls-1" d="M139.84,220.16a77.88,77.88,0,1,1,77.6-77.88A77.69,77.69,0,0,1,139.84,220.16Z" transform="translate(-3.54 -5.5)"/><path class="cls-1" d="M198,142.28a58.2,58.2,0,1,0-58.2,58.41A58.27,58.27,0,0,0,198,142.28Z" transform="translate(-3.54 -5.5)"/><path class="cls-1" d="M139.84,181.22a38.94,38.94,0,1,1,38.8-38.94A38.85,38.85,0,0,1,139.84,181.22Z" transform="translate(-3.54 -5.5)"/><circle class="cls-2" cx="38.82" cy="136.55" r="3.83"/><circle class="cls-2" cx="40.74" cy="118.34" r="3.83"/><circle class="cls-2" cx="46.49" cy="100.14" r="3.83"/><circle class="cls-2" cx="55.11" cy="82.89" r="3.83"/><circle class="cls-2" cx="67.56" cy="68.52" r="3.83"/><circle class="cls-2" cx="82.89" cy="56.07" r="3.83"/><circle class="cls-2" cx="99.18" cy="47.45" r="3.83"/><circle class="cls-2" cx="117.38" cy="41.7" r="3.83"/><circle class="cls-2" cx="233.31" cy="136.55" r="3.83"/><circle class="cls-2" cx="231.39" cy="118.34" r="3.83"/><circle class="cls-2" cx="225.65" cy="100.14" r="3.83"/><circle class="cls-2" cx="217.02" cy="82.89" r="3.83"/><circle class="cls-2" cx="204.57" cy="68.52" r="3.83"/><circle class="cls-2" cx="189.24" cy="56.07" r="3.83"/><circle class="cls-2" cx="172.95" cy="47.45" r="3.83"/><circle class="cls-2" cx="154.75" cy="41.7" r="3.83"/><circle class="cls-2" cx="136.55" cy="39.78" r="3.83"/><circle class="cls-2" cx="40.74" cy="155.71" r="3.83"/><circle class="cls-2" cx="46.49" cy="173.91" r="3.83"/><circle class="cls-2" cx="55.11" cy="191.16" r="3.83"/><circle class="cls-2" cx="67.56" cy="205.53" r="3.83"/><circle class="cls-2" cx="82.89" cy="217.98" r="3.83"/><circle class="cls-2" cx="99.18" cy="226.6" r="3.83"/><circle class="cls-2" cx="117.38" cy="232.35" r="3.83"/><circle class="cls-2" cx="231.39" cy="155.71" r="3.83"/><circle class="cls-2" cx="225.65" cy="173.91" r="3.83"/><circle class="cls-2" cx="217.02" cy="191.16" r="3.83"/><circle class="cls-2" cx="204.57" cy="205.53" r="3.83"/><circle class="cls-2" cx="189.24" cy="217.98" r="3.83"/><circle class="cls-2" cx="172.95" cy="226.6" r="3.83"/><circle class="cls-2" cx="154.75" cy="232.35" r="3.83"/><circle class="cls-2" cx="136.55" cy="234.27" r="3.83"/><circle class="cls-2" cx="136.55" cy="19.66" r="3.83"/><circle class="cls-2" cx="180.62" cy="29.24" r="3.83"/><circle class="cls-2" cx="218.94" cy="54.15" r="3.83"/><circle class="cls-2" cx="243.85" cy="92.47" r="3.83"/><circle class="cls-2" cx="252.47" cy="136.55" r="3.83"/><circle class="cls-2" cx="243.85" cy="181.57" r="3.83"/><circle class="cls-2" cx="218.94" cy="218.94" r="3.83"/><circle class="cls-2" cx="180.62" cy="244.81" r="3.83"/><circle class="cls-2" cx="136.55" cy="253.43" r="3.83"/><circle class="cls-2" cx="92.47" cy="244.81" r="3.83"/><circle class="cls-2" cx="54.15" cy="219.9" r="3.83"/><circle class="cls-2" cx="29.24" cy="181.57" r="3.83"/><circle class="cls-2" cx="19.66" cy="136.55" r="3.83"/><circle class="cls-2" cx="28.28" cy="92.47" r="3.83"/><circle class="cls-2" cx="53.19" cy="54.15" r="3.83"/><circle class="cls-2" cx="90.56" cy="27.33" r="3.83"/><circle class="cls-2" cx="113.55" cy="22.54" r="3.83"/><circle class="cls-2" cx="158.58" cy="251.51" r="3.83"/><circle class="cls-2" cx="271.63" cy="136.55" r="3.83"/><circle class="cls-2" cx="106.85" cy="64.69" r="3.83"/><circle class="cls-2" cx="136.55" cy="58.94" r="3.83"/><circle class="cls-2" cx="166.25" cy="64.69" r="3.83"/><circle class="cls-2" cx="191.16" cy="81.94" r="3.83"/><circle class="cls-2" cx="136.55" cy="39.78" r="3.83"/><circle class="cls-2" cx="81.94" cy="81.94" r="3.83"/><circle class="cls-2" cx="64.69" cy="106.85" r="3.83"/><circle class="cls-2" cx="207.44" cy="107.8" r="3.83"/><circle class="cls-2" cx="214.15" cy="136.55" r="3.83"/><circle class="cls-2" cx="208.4" cy="167.2" r="3.83"/><circle class="cls-2" cx="58.94" cy="136.55" r="3.83"/><circle class="cls-2" cx="64.69" cy="166.25" r="3.83"/><circle class="cls-2" cx="80.98" cy="192.11" r="3.83"/><circle class="cls-2" cx="106.85" cy="208.4" r="3.83"/><circle class="cls-2" cx="136.55" cy="215.11" r="3.83"/><circle class="cls-2" cx="166.25" cy="208.4" r="3.83"/><circle class="cls-2" cx="191.16" cy="192.11" r="3.83"/><circle class="cls-2" cx="121.22" cy="213.19" r="3.83"/><circle class="cls-2" cx="150.92" cy="60.86" r="3.83"/><circle class="cls-2" cx="136.55" cy="78.1" r="3.83"/><circle class="cls-2" cx="136.55" cy="194.99" r="3.83"/><circle class="cls-2" cx="78.1" cy="137.5" r="3.83"/><circle class="cls-2" cx="194.99" cy="137.5" r="3.83"/><circle class="cls-2" cx="95.35" cy="95.35" r="3.83"/><circle class="cls-2" cx="177.74" cy="95.35" r="3.83"/><circle class="cls-2" cx="95.35" cy="177.74" r="3.83"/><circle class="cls-2" cx="177.74" cy="178.7" r="3.83"/><circle class="cls-2" cx="97.26" cy="136.55" r="3.83"/><circle class="cls-2" cx="174.87" cy="137.5" r="3.83"/><circle class="cls-2" cx="135.96" cy="136" r="15.5"/></svg>