<?xml version="1.0" encoding="utf-8"?>
<!-- Generator: Adobe Illustrator 21.0.0, SVG Export Plug-In . SVG Version: 6.00 Build 0)  -->
<svg version="1.1" id="Layer_1" xmlns="http://www.w3.org/2000/svg" xmlns:xlink="http://www.w3.org/1999/xlink" x="0px" y="0px"
	 viewBox="0 0 283.5 283.5" style="enable-background:new 0 0 283.5 283.5;" xml:space="preserve">
<style type="text/css">
	.st0{fill:none;stroke:#000000;stroke-miterlimit:10;}
	.st1{fill:#F4F498;}
</style>
<g>
	<g>
		<path class="st0" d="M276.6,141.6c0-75.7-61-137-136.5-137S3.7,66,3.7,141.6s61,137,136.5,137S276.6,217.3,276.6,141.6z"/>
		<path class="st0" d="M140.1,259c-64.6,0-117-52.5-117-117.4s52.4-117.4,117-117.4s117,52.5,117,117.4S204.9,259,140.1,259z"/>
		<path class="st0" d="M237.6,141.6c0-54.1-43.6-97.8-97.5-97.8s-97.5,43.7-97.5,97.8s43.6,97.8,97.5,97.8S237.6,195.7,237.6,141.6z
			"/>
		<path class="st0" d="M140.1,219.9c-43.1,0-78-35-78-78.3s34.9-78.3,78-78.3s78,35,78,78.3S183.2,219.9,140.1,219.9z"/>
		<path class="st0" d="M198.6,141.6c0-32.5-26.1-58.7-58.5-58.7s-58.5,26.2-58.5,58.7s26.1,58.7,58.5,58.7S198.6,174.1,198.6,141.6z
			"/>
		<path class="st0" d="M140.1,180.7c-21.5,0-39-17.5-39-39.1c0-21.6,17.5-39.1,39-39.1s39,17.5,39,39.1
			C179.1,163.2,161.7,180.7,140.1,180.7z"/>
	</g>
</g>
<circle class="st1" cx="42.3" cy="141.3" r="3.8"/>
<circle class="st1" cx="44.2" cy="123" r="3.8"/>
<circle class="st1" cx="49.9" cy="104.8" r="3.8"/>
<circle class="st1" cx="58.5" cy="87.5" r="3.8"/>
<circle class="st1" cx="71.1" cy="73" r="3.8"/>
<circle class="st1" cx="86.5" cy="60.5" r="3.8"/>
<circle class="st1" cx="102.9" cy="51.8" r="3.8"/>
<circle class="st1" cx="121.1" cy="46.1" r="3.8"/>
<circle class="st1" cx="237.6" cy="141.3" r="3.8"/>
<circle class="st1" cx="235.7" cy="123" r="3.8"/>
<circle class="st1" cx="230" cy="104.8" r="3.8"/>
<circle class="st1" cx="221.3" cy="87.5" r="3.8"/>
<circle class="st1" cx="208.8" cy="73" r="3.8"/>
<circle class="st1" cx="193.4" cy="60.5" r="3.8"/>
<circle class="st1" cx="177" cy="51.8" r="3.8"/>
<circle class="st1" cx="158.7" cy="46.1" r="3.8"/>
<circle class="st1" cx="140.4" cy="44.2" r="3.8"/>
<circle class="st1" cx="44.2" cy="160.6" r="3.8"/>
<circle class="st1" cx="49.9" cy="178.9" r="3.8"/>
<circle class="st1" cx="58.5" cy="196.3" r="3.8"/>
<circle class="st1" cx="71.1" cy="210.7" r="3.8"/>
<circle class="st1" cx="86.5" cy="223.2" r="3.8"/>
<circle class="st1" cx="102.9" cy="231.9" r="3.8"/>
<circle class="st1" cx="121.1" cy="237.7" r="3.8"/>
<circle class="st1" cx="235.7" cy="160.6" r="3.8"/>
<circle class="st1" cx="230" cy="178.9" r="3.8"/>
<circle class="st1" cx="221.3" cy="196.3" r="3.8"/>
<circle class="st1" cx="208.8" cy="210.7" r="3.8"/>
<circle class="st1" cx="193.4" cy="223.2" r="3.8"/>
<circle class="st1" cx="177" cy="231.9" r="3.8"/>
<circle class="st1" cx="158.7" cy="237.7" r="3.8"/>
<circle class="st1" cx="140.4" cy="239.6" r="3.8"/>
<circle class="st1" cx="140.4" cy="24" r="3.8"/>
<circle class="st1" cx="215.9" cy="51.6" r="3.8"/>
<circle class="st1" cx="241.3" cy="83.8" r="3.8"/>
<circle class="st1" cx="256.3" cy="121.2" r="3.8"/>
<circle class="st1" cx="255.9" cy="162.4" r="3.8"/>
<circle class="st1" cx="241.2" cy="200.7" r="3.8"/>
<circle class="st1" cx="215.2" cy="232.2" r="3.8"/>
<circle class="st1" cx="180.7" cy="253.2" r="3.8"/>
<circle class="st1" cx="140.4" cy="258.8" r="3.8"/>
<circle class="st1" cx="100.1" cy="253.2" r="3.8"/>
<circle class="st1" cx="65.7" cy="232.2" r="3.8"/>
<circle class="st1" cx="38.6" cy="200.7" r="3.8"/>
<circle class="st1" cx="24" cy="162.4" r="3.8"/>
<circle class="st1" cx="38.6" cy="83.1" r="3.8"/>
<circle class="st1" cx="64.7" cy="51.6" r="3.8"/>
<circle class="st1" cx="100.2" cy="30.6" r="3.8"/>
<circle class="st1" cx="180.6" cy="31.8" r="3.8"/>
<circle class="st1" cx="24.9" cy="121.2" r="3.8"/>
<circle class="st1" cx="276.2" cy="141.3" r="3.8"/>
<circle class="st1" cx="113.6" cy="68.2" r="3.8"/>
<circle class="st1" cx="140.4" cy="63.4" r="3.8"/>
<circle class="st1" cx="167.3" cy="68.2" r="3.8"/>
<circle class="st1" cx="191.3" cy="81.4" r="3.8"/>
<circle class="st1" cx="140.4" cy="44.2" r="3.8"/>
<circle class="st1" cx="90.6" cy="81.4" r="3.8"/>
<circle class="st1" cx="72.2" cy="102.4" r="3.8"/>
<circle class="st1" cx="208.7" cy="102.4" r="3.8"/>
<circle class="st1" cx="217.4" cy="156.4" r="3.8"/>
<circle class="st1" cx="207.6" cy="181.2" r="3.8"/>
<circle class="st1" cx="63.5" cy="154.4" r="3.8"/>
<circle class="st1" cx="73.2" cy="181.2" r="3.8"/>
<circle class="st1" cx="90.6" cy="201.2" r="3.8"/>
<circle class="st1" cx="113.6" cy="214.6" r="3.8"/>
<circle class="st1" cx="140.4" cy="220.3" r="3.8"/>
<circle class="st1" cx="167.3" cy="214.6" r="3.8"/>
<circle class="st1" cx="190.3" cy="201.2" r="3.8"/>
<circle class="st1" cx="217.5" cy="129" r="3.8"/>
<circle class="st1" cx="63.5" cy="128.7" r="3.8"/>
<circle class="st1" cx="140.4" cy="82.7" r="3.8"/>
<circle class="st1" cx="140.4" cy="200.1" r="3.8"/>
<circle class="st1" cx="81.6" cy="142.3" r="3.8"/>
<circle class="st1" cx="199.1" cy="142.3" r="3.8"/>
<circle class="st1" cx="99" cy="99.9" r="3.8"/>
<circle class="st1" cx="181.8" cy="99.9" r="3.8"/>
<circle class="st1" cx="99" cy="182.7" r="3.8"/>
<circle class="st1" cx="181.8" cy="183.7" r="3.8"/>
<circle class="st1" cx="100.9" cy="141.3" r="3.8"/>
<circle class="st1" cx="178.9" cy="142.3" r="3.8"/>
<circle class="st1" cx="139.8" cy="140.8" r="15.6"/>
</svg>
