<?xml version="1.0" encoding="utf-8"?>
<!-- Generator: Adobe Illustrator 21.0.0, SVG Export Plug-In . SVG Version: 6.00 Build 0)  -->
<svg version="1.1" id="Layer_1" xmlns="http://www.w3.org/2000/svg" xmlns:xlink="http://www.w3.org/1999/xlink" x="0px" y="0px"
	 viewBox="0 0 283.5 368.5" style="enable-background:new 0 0 283.5 368.5;" xml:space="preserve">
<style type="text/css">
	.st0{fill:#F4F498;}
	.st1{enable-background:new    ;}
	.st2{fill:#FFFFFF;}
</style>
<g>
	<rect y="0" class="st0" width="316" height="316"/>
</g>
<g class="st1">
	<path class="st2" d="M154.4,233.6l-18.9-48.3H60.3l-19,48.3H18.1L85.5,68.5h25.4l66.3,165.1H154.4z M97.9,85.4l-1.1,3.3
		c-2,6.5-4.8,14.8-8.7,25l-21.1,54.3h61.8l-21.2-54.5c-2.2-5.4-4.4-11.5-6.6-18.3L97.9,85.4z"/>
	<path class="st2" d="M214.5,106.8v80.4c0,8.4,0.8,14.8,2.5,19.5c1.6,4.6,4.3,7.9,7.9,10c3.6,2,8.9,3,15.8,3
		c10.2,0,18.2-3.5,24-10.4c5.9-7,8.8-16.6,8.8-28.9v-73.5h21.1v99.7c0,14.8,0.2,23.8,0.7,27.1h-19.9c-0.1-0.4-0.2-1.4-0.2-3.2
		c-0.1-1.7-0.2-3.7-0.3-5.9s-0.3-6.4-0.4-12.6H274c-4.8,8.8-10.5,14.9-16.8,18.6c-6.4,3.6-14.3,5.4-23.7,5.4
		c-13.9,0-24.1-3.5-30.5-10.4s-9.7-18.3-9.7-34.3v-84.5H214.5z"/>
</g>
</svg>
