<?xml version="1.0" encoding="utf-8"?>
<!-- Generator: Adobe Illustrator 21.0.0, SVG Export Plug-In . SVG Version: 6.00 Build 0)  -->
<svg version="1.1" id="Layer_1" xmlns="http://www.w3.org/2000/svg" xmlns:xlink="http://www.w3.org/1999/xlink" x="0px" y="0px"
	 viewBox="0 0 283.5 283.5" style="enable-background:new 0 0 283.5 283.5;" xml:space="preserve">
<style type="text/css">
	.st0{fill:#F4F498;}
	.st1{fill:#E2DE47;}
	.st2{font-family:'MyriadPro-Regular';}
	.st3{font-size:192.2713px;}
	.st4{fill:#FFFFFF;}
</style>
<g>
	<g>
		<circle class="st0" cx="149" cy="147" r="115"/>
		<g>
			<path class="st1" d="M262.5,147c-0.3,47.1-30,90.3-74.4,106.6c-44.7,16.4-96,2.5-126.4-34.1c-30.5-36.6-34.6-90.1-10-130.9
				c24.5-40.7,73-62.2,119.6-52.9c45.9,9.2,82.2,46.9,89.8,93.1C262,134.8,262.5,140.9,262.5,147c0,1.9,3,1.9,3,0
				c-0.3-48.3-30.6-92.4-76-109.3c-45.9-17.1-99.2-2.7-130.4,35.1c-31,37.6-35.2,92.2-10.1,134.1c25.1,41.7,74.6,63.7,122.3,54.4
				c47.6-9.2,85.5-48.7,92.7-96.6c0.9-5.9,1.3-11.8,1.3-17.7C265.5,145.1,262.5,145.1,262.5,147z"/>
		</g>
	</g>
	<g>
		<circle class="st0" cx="149" cy="147" r="102"/>
		<g>
			<path class="st1" d="M249.5,147c-0.3,41.8-26.6,80.2-66.1,94.5c-39.5,14.3-84.7,2-111.6-30.2c-27.1-32.4-30.7-80-8.9-116.2
				c21.8-36.1,65-55.1,106.3-46.6C215.6,58,249.2,99.8,249.5,147c0,1.9,3,1.9,3,0c-0.3-43.2-27.6-82.6-68.3-97.4
				c-40.8-14.8-87.9-1.7-115.3,31.9C41.6,115,38,163.4,60.3,200.4c22.2,36.9,66,56.3,108.3,48.3c48.4-9.2,83.5-52.7,83.9-101.6
				C252.5,145.1,249.5,145.1,249.5,147z"/>
		</g>
	</g>
	<text transform="matrix(1 0 0 1 94.5552 201.9326)" class="st1 st2 st3">£</text>
</g>
<g>
	<circle class="st4" cx="86" cy="113" r="28.5"/>
	<g>
		<path d="M113.4,113c-0.4,14.9-12.2,27.4-27.4,27.4c-14.9,0-27.4-12.5-27.4-27.4c0-14.9,12.5-27.4,27.4-27.4
			C101.2,85.7,113,98.1,113.4,113c0,1.4,2.3,1.5,2.2,0c-0.3-12.1-7.4-23.1-18.8-27.6c-11.9-4.7-25.8-0.9-33.9,9
			c-16.8,20.9,1.9,52.2,28.1,47.7c14.3-2.4,24.2-14.9,24.6-29.2C115.7,111.6,113.4,111.6,113.4,113z"/>
	</g>
</g>
<circle class="st1" cx="86" cy="113" r="21"/>
<circle cx="86" cy="113" r="15"/>
<g>
	<circle class="st4" cx="212" cy="113" r="28.5"/>
	<g>
		<path d="M239.4,113c-0.4,14.9-12.2,27.4-27.4,27.4c-14.9,0-27.4-12.5-27.4-27.4c0-14.9,12.5-27.4,27.4-27.4
			C227.2,85.7,239,98.1,239.4,113c0,1.4,2.3,1.5,2.2,0c-0.3-12.1-7.4-23.1-18.8-27.6c-11.9-4.7-25.8-0.9-33.9,9
			c-16.8,20.9,1.9,52.2,28.1,47.7c14.3-2.4,24.2-14.9,24.6-29.2C241.7,111.6,239.4,111.6,239.4,113z"/>
	</g>
</g>
<circle class="st1" cx="212" cy="113" r="21"/>
<circle cx="212" cy="113" r="15"/>
<g>
	<g>
		<path d="M239.5,113c-0.3,15-12.3,27.5-27.5,27.5c-15,0-27.5-12.5-27.5-27.5S197,85.5,212,85.5C227.2,85.5,239.2,98,239.5,113
			c0.1,5.8,9.1,5.8,9,0c-0.3-15.3-9.6-29-24.1-34.3c-14.4-5.3-31.2-0.5-40.8,11.4c-9.5,11.8-10.8,28.7-2.9,41.7
			c7.8,13,23.1,19.7,37.9,17.1c17.3-3.1,29.5-18.6,29.8-35.9C248.6,107.2,239.6,107.2,239.5,113z"/>
	</g>
</g>
<g>
	<g>
		<path d="M114,113.5c-0.3,15-12.3,27.5-27.5,27.5c-15,0-27.5-12.5-27.5-27.5S71.5,86,86.5,86C101.7,86,113.7,98.5,114,113.5
			c0.1,5.8,9.1,5.8,9,0c-0.3-15.3-9.6-29-24.1-34.3c-14.4-5.3-31.2-0.5-40.8,11.4c-9.5,11.8-10.8,28.7-2.9,41.7
			c7.8,13,23.1,19.7,37.9,17.1c17.3-3.1,29.5-18.6,29.8-35.9C123.1,107.7,114.1,107.7,114,113.5z"/>
	</g>
</g>
<g>
	<g>
		<path d="M118.5,118c20.3,0,40.7,0,61,0c5.8,0,5.8-9,0-9c-20.3,0-40.7,0-61,0C112.7,109,112.7,118,118.5,118L118.5,118z"/>
	</g>
</g>
<g>
	<g>
		<path d="M37,117c4.3,0,8.7,0,13,0c5.8,0,5.8-9,0-9c-4.3,0-8.7,0-13,0C31.2,108,31.2,117,37,117L37,117z"/>
	</g>
</g>
<g>
	<g>
		<path d="M247,117c4.3,0,8.7,0,13,0c5.8,0,5.8-9,0-9c-4.3,0-8.7,0-13,0C241.2,108,241.2,117,247,117L247,117z"/>
	</g>
</g>
</svg>
