<?xml version="1.0" encoding="utf-8"?>
<!-- Generator: Adobe Illustrator 21.0.0, SVG Export Plug-In . SVG Version: 6.00 Build 0)  -->
<svg version="1.1" id="Layer_1" xmlns="http://www.w3.org/2000/svg" xmlns:xlink="http://www.w3.org/1999/xlink" x="0px" y="0px"
	 viewBox="0 0 283.5 283.5" style="enable-background:new 0 0 283.5 283.5;" xml:space="preserve">
<style type="text/css">
	.st0{fill:none;stroke:#000000;stroke-miterlimit:10;}
	.st1{fill:#EF9ABC;}
	.st2{fill:#F4F498;}
</style>
<g>
	<g>
		<path class="st0" d="M275.6,142.3C275.6,67,214.9,6,139.8,6S4,67,4,142.3s60.7,136.3,135.8,136.3S275.6,217.6,275.6,142.3z"/>
		<path class="st0" d="M139.8,259.1c-64.3,0-116.4-52.2-116.4-116.8S75.5,25.5,139.8,25.5s116.4,52.2,116.4,116.8
			S204.2,259.1,139.8,259.1z"/>
		<path class="st0" d="M236.8,142.3c0-53.8-43.4-97.3-97-97.3s-97,43.5-97,97.3s43.4,97.3,97,97.3S236.8,196.1,236.8,142.3z"/>
		<path class="st0" d="M139.8,220.2c-42.9,0-77.6-34.8-77.6-77.9s34.7-77.9,77.6-77.9s77.6,34.8,77.6,77.9S182.7,220.2,139.8,220.2z
			"/>
		<path class="st0" d="M198,142.3c0-32.3-26-58.4-58.2-58.4S81.6,110,81.6,142.3s26,58.4,58.2,58.4S198,174.6,198,142.3z"/>
		<path class="st0" d="M139.8,181.2c-21.4,0-38.8-17.4-38.8-38.9c0-21.5,17.4-38.9,38.8-38.9s38.8,17.4,38.8,38.9
			C178.6,163.8,161.3,181.2,139.8,181.2z"/>
	</g>
</g>
<circle class="st1" cx="42.4" cy="142" r="3.8"/>
<circle class="st1" cx="44.3" cy="123.8" r="3.8"/>
<circle class="st1" cx="50" cy="105.6" r="3.8"/>
<circle class="st1" cx="58.6" cy="88.4" r="3.8"/>
<circle class="st1" cx="71.1" cy="74" r="3.8"/>
<circle class="st1" cx="86.4" cy="61.6" r="3.8"/>
<circle class="st1" cx="102.7" cy="52.9" r="3.8"/>
<circle class="st1" cx="120.9" cy="47.2" r="3.8"/>
<circle class="st1" cx="236.8" cy="142" r="3.8"/>
<circle class="st1" cx="234.9" cy="123.8" r="3.8"/>
<circle class="st1" cx="229.2" cy="105.6" r="3.8"/>
<circle class="st1" cx="220.6" cy="88.4" r="3.8"/>
<circle class="st1" cx="208.1" cy="74" r="3.8"/>
<circle class="st1" cx="192.8" cy="61.6" r="3.8"/>
<circle class="st1" cx="176.5" cy="52.9" r="3.8"/>
<circle class="st1" cx="158.3" cy="47.2" r="3.8"/>
<circle class="st2" cx="140.1" cy="45.3" r="3.8"/>
<circle class="st1" cx="44.3" cy="161.2" r="3.8"/>
<circle class="st1" cx="50" cy="179.4" r="3.8"/>
<circle class="st1" cx="58.6" cy="196.7" r="3.8"/>
<circle class="st1" cx="71.1" cy="211" r="3.8"/>
<circle class="st1" cx="86.4" cy="223.5" r="3.8"/>
<circle class="st1" cx="102.7" cy="232.1" r="3.8"/>
<circle class="st1" cx="120.9" cy="237.9" r="3.8"/>
<circle class="st1" cx="234.9" cy="161.2" r="3.8"/>
<circle class="st1" cx="229.2" cy="179.4" r="3.8"/>
<circle class="st1" cx="220.6" cy="196.7" r="3.8"/>
<circle class="st1" cx="208.1" cy="211" r="3.8"/>
<circle class="st1" cx="192.8" cy="223.5" r="3.8"/>
<circle class="st1" cx="176.5" cy="232.1" r="3.8"/>
<circle class="st1" cx="158.3" cy="237.9" r="3.8"/>
<circle class="st1" cx="140.1" cy="239.8" r="3.8"/>
<circle class="st1" cx="140.1" cy="25.2" r="3.8"/>
<circle class="st1" cx="179.2" cy="32.7" r="3.8"/>
<circle class="st1" cx="214.5" cy="52.7" r="3.8"/>
<circle class="st1" cx="240.4" cy="84" r="3.8"/>
<circle class="st1" cx="255" cy="121" r="3.8"/>
<circle class="st1" cx="254.4" cy="162.1" r="3.8"/>
<circle class="st1" cx="240.5" cy="200.4" r="3.8"/>
<circle class="st1" cx="215.2" cy="231.3" r="3.8"/>
<circle class="st1" cx="140.1" cy="258.9" r="3.8"/>
<circle class="st1" cx="100" cy="252.3" r="3.8"/>
<circle class="st1" cx="64.7" cy="231.4" r="3.8"/>
<circle class="st1" cx="38.8" cy="200.1" r="3.8"/>
<circle class="st1" cx="25.2" cy="162" r="3.8"/>
<circle class="st1" cx="24.8" cy="121" r="3.8"/>
<circle class="st1" cx="38.7" cy="82.7" r="3.8"/>
<circle class="st1" cx="100.1" cy="31.8" r="3.8"/>
<circle class="st1" cx="4.1" cy="143" r="3.8"/>
<circle class="st1" cx="275.2" cy="142" r="3.8"/>
<circle class="st1" cx="90.4" cy="82.2" r="3.8"/>
<circle class="st1" cx="140.1" cy="64.4" r="3.8"/>
<circle class="st1" cx="166.8" cy="69.2" r="3.8"/>
<circle class="st1" cx="188.7" cy="82.4" r="3.8"/>
<circle class="st1" cx="140.1" cy="45.3" r="3.8"/>
<circle class="st1" cx="73.5" cy="103.4" r="3.8"/>
<circle class="st1" cx="64.2" cy="127.3" r="3.8"/>
<circle class="st1" cx="207" cy="103.3" r="3.8"/>
<circle class="st1" cx="216.7" cy="128" r="3.8"/>
<circle class="st1" cx="215.9" cy="154.7" r="3.8"/>
<circle class="st1" cx="63.5" cy="155" r="3.8"/>
<circle class="st1" cx="72.2" cy="180.7" r="3.8"/>
<circle class="st1" cx="90.5" cy="201.6" r="3.8"/>
<circle class="st1" cx="113.4" cy="215.9" r="3.8"/>
<circle class="st1" cx="140.1" cy="220.6" r="3.8"/>
<circle class="st1" cx="189.8" cy="201.9" r="3.8"/>
<circle class="st1" cx="207.7" cy="180.6" r="3.8"/>
<circle class="st1" cx="166.8" cy="215.7" r="3.8"/>
<circle class="st1" cx="140.1" cy="83.6" r="3.8"/>
<circle class="st1" cx="140.1" cy="200.5" r="3.8"/>
<circle class="st1" cx="81.6" cy="143" r="3.8"/>
<circle class="st1" cx="198.5" cy="143" r="3.8"/>
<circle class="st1" cx="98.9" cy="100.8" r="3.8"/>
<circle class="st1" cx="181.3" cy="100.8" r="3.8"/>
<circle class="st1" cx="98.9" cy="183.2" r="3.8"/>
<circle class="st1" cx="181.3" cy="184.2" r="3.8"/>
<circle class="st1" cx="100.8" cy="142" r="3.8"/>
<circle class="st1" cx="178.4" cy="143" r="3.8"/>
<circle class="st1" cx="139.5" cy="141.5" r="15.5"/>
<circle class="st1" cx="180.8" cy="252.7" r="3.8"/>
<circle class="st1" cx="113.8" cy="69.7" r="3.8"/>
<circle class="st1" cx="65.8" cy="52.7" r="3.8"/>
</svg>
