<?xml version="1.0" encoding="utf-8"?>
<!-- Generator: Adobe Illustrator 21.0.0, SVG Export Plug-In . SVG Version: 6.00 Build 0)  -->
<svg version="1.1" id="Layer_1" xmlns="http://www.w3.org/2000/svg" xmlns:xlink="http://www.w3.org/1999/xlink" x="0px" y="0px"
	 viewBox="0 0 283.5 368.5" style="enable-background:new 0 0 283.5 368.5;" xml:space="preserve">
<style type="text/css">
	.st0{fill:#7EE8B2;}
	.st1{enable-background:new    ;}
	.st2{fill:#FFFFFF;}
</style>
<g>
	<rect y="0" class="st0" width="316" height="316"/>
</g>
<g class="st1">
	<path class="st2" d="M150.1,221.2l-18.1-46.3H60l-18.2,46.3H19.5L84.1,63h24.4L172,221.2H150.1z M96,79.1l-1,3.1
		c-1.9,6.2-4.6,14.2-8.3,23.9l-20.2,52h59.2L105.3,106c-2.1-5.2-4.2-11-6.3-17.5L96,79.1z"/>
	<path class="st2" d="M234,268.9c-13.3,0-23.8-2.6-31.7-7.8c-7.9-5.2-12.9-12.6-15.2-22.2l20.3-2.9c1.3,5.6,4.3,9.9,8.9,13
		c4.6,3,10.6,4.5,18.1,4.5c20.1,0,30.2-11.8,30.2-35.4v-19.5h-0.2c-3.8,7.8-9.1,13.6-15.7,17.6c-6.7,3.9-14.5,5.9-23.4,5.9
		c-14.9,0-25.8-4.9-32.8-14.8c-7-9.9-10.5-25.4-10.5-46.6c0-21.5,3.8-37.3,11.3-47.6c7.5-10.2,19-15.3,34.3-15.3
		c8.6,0,16.1,2,22.4,5.9c6.3,3.9,11.2,9.5,14.7,16.8h0.2c0-2.2,0.1-6.1,0.4-11.7c0.3-5.5,0.6-8.6,0.9-9.1h19.2
		c-0.4,4-0.7,12.4-0.7,25.2v92.9C284.9,251.9,268,268.9,234,268.9z M264.8,160.4c0-9.9-1.3-18.4-4-25.5c-2.7-7.1-6.5-12.6-11.4-16.4
		c-4.9-3.8-10.5-5.7-16.7-5.7c-10.3,0-17.9,3.7-22.6,11.2c-4.7,7.5-7.1,19.6-7.1,36.4c0,16.6,2.2,28.6,6.6,35.8
		c4.4,7.3,12,10.9,22.7,10.9c6.4,0,12-1.9,17-5.6c4.9-3.7,8.8-9.1,11.5-16.1C263.5,178.4,264.8,170.1,264.8,160.4z"/>
</g>
</svg>
