<?xml version="1.0" encoding="utf-8"?>
<!-- Generator: Adobe Illustrator 21.0.0, SVG Export Plug-In . SVG Version: 6.00 Build 0)  -->
<svg version="1.1" id="Layer_1" xmlns="http://www.w3.org/2000/svg" xmlns:xlink="http://www.w3.org/1999/xlink" x="0px" y="0px"
	 viewBox="0 0 283.5 283.5" style="enable-background:new 0 0 283.5 283.5;" xml:space="preserve">
<style type="text/css">
	.st0{fill:none;stroke:#000000;stroke-miterlimit:10;}
	.st1{fill:#7EE8BC;}
	.st2{fill:#F4F498;}
</style>
<g>
	<g>
		<path class="st0" d="M139.3,278c-75,0-135.8-60.9-135.8-136.3S64.3,5.5,139.3,5.5s135.8,60.9,135.8,136.3S214.4,278,139.3,278z"/>
		<path class="st0" d="M252.5,141.7c0-62.8-50.6-113.5-113.2-113.5S26.2,79,26.2,141.7s50.6,113.5,113.2,113.5
			S252.5,204.5,252.5,141.7z"/>
		<path class="st0" d="M139.3,232.6c-50,0-90.5-40.6-90.5-90.9s40.5-90.9,90.5-90.9s90.5,40.6,90.5,90.9S189.4,232.6,139.3,232.6z"
			/>
		<path class="st0" d="M207.2,141.7c0-37.7-30.3-68.1-67.9-68.1S71.4,104,71.4,141.7s30.3,68.1,67.9,68.1S207.2,179.4,207.2,141.7z"
			/>
		<path class="st0" d="M139.3,187.1c-25,0-45.3-20.3-45.3-45.4s20.3-45.4,45.3-45.4s45.3,20.3,45.3,45.4S164.4,187.1,139.3,187.1z"
			/>
	</g>
</g>
<circle class="st1" cx="28" cy="123.9" r="4.4"/>
<circle class="st1" cx="40.4" cy="86.1" r="4.4"/>
<circle class="st1" cx="66.2" cy="55" r="4.4"/>
<circle class="st1" cx="99.5" cy="36.3" r="4.4"/>
<circle class="st1" cx="250.1" cy="162.4" r="4.4"/>
<circle class="st1" cx="250.6" cy="123.4" r="4.4"/>
<circle class="st1" cx="238.8" cy="86.5" r="4.4"/>
<circle class="st1" cx="178.6" cy="35.1" r="4.4"/>
<circle class="st1" cx="213.4" cy="55.3" r="4.4"/>
<circle class="st2" cx="139.7" cy="28.6" r="4.4"/>
<circle class="st1" cx="28.7" cy="162.8" r="4.4"/>
<circle class="st1" cx="41.7" cy="199.7" r="4.4"/>
<circle class="st1" cx="66.9" cy="229" r="4.4"/>
<circle class="st1" cx="236.6" cy="199" r="4.4"/>
<circle class="st1" cx="212" cy="228.9" r="4.4"/>
<circle class="st1" cx="177.5" cy="248.8" r="4.4"/>
<circle class="st1" cx="101.4" cy="248.6" r="4.4"/>
<circle class="st1" cx="139.7" cy="255.5" r="4.4"/>
<circle class="st1" cx="274.9" cy="141.4" r="4.4"/>
<circle class="st1" cx="107.4" cy="56.4" r="4.4"/>
<circle class="st1" cx="139.7" cy="50.8" r="4.4"/>
<circle class="st1" cx="170.8" cy="56.4" r="4.4"/>
<circle class="st1" cx="218.5" cy="97.5" r="4.4"/>
<circle class="st1" cx="139.7" cy="28.6" r="4.4"/>
<circle class="st1" cx="80.6" cy="73" r="4.4"/>
<circle class="st1" cx="60.5" cy="97.4" r="4.4"/>
<circle class="st1" cx="228.2" cy="127.7" r="4.4"/>
<circle class="st1" cx="227.9" cy="158.9" r="4.4"/>
<circle class="st1" cx="216.4" cy="187.7" r="4.4"/>
<circle class="st1" cx="49.1" cy="127.4" r="4.4"/>
<circle class="st1" cx="51.1" cy="158.5" r="4.4"/>
<circle class="st1" cx="62" cy="188.7" r="4.4"/>
<circle class="st1" cx="81.7" cy="212.4" r="4.4"/>
<circle class="st1" cx="139.7" cy="233.1" r="4.4"/>
<circle class="st1" cx="170.8" cy="227.6" r="4.4"/>
<circle class="st1" cx="196.4" cy="212.1" r="4.4"/>
<circle class="st1" cx="109" cy="227.3" r="4.4"/>
<circle class="st1" cx="198.5" cy="73" r="4.4"/>
<circle class="st1" cx="139.7" cy="73.2" r="4.4"/>
<circle class="st1" cx="139.7" cy="209.6" r="4.4"/>
<circle class="st1" cx="71.4" cy="142.5" r="4.4"/>
<circle class="st1" cx="207.8" cy="142.5" r="4.4"/>
<circle class="st1" cx="91.6" cy="93.3" r="4.4"/>
<circle class="st1" cx="187.7" cy="93.3" r="4.4"/>
<circle class="st1" cx="91.6" cy="189.4" r="4.4"/>
<circle class="st1" cx="187.7" cy="190.6" r="4.4"/>
<circle class="st1" cx="93.8" cy="141.4" r="4.4"/>
<circle class="st1" cx="184.3" cy="142.5" r="4.4"/>
<circle class="st1" cx="140.1" cy="143.1" r="18.1"/>
</svg>
