<?xml version="1.0" encoding="utf-8"?>
<!-- Generator: Adobe Illustrator 21.0.0, SVG Export Plug-In . SVG Version: 6.00 Build 0)  -->
<svg version="1.1" id="Layer_1" xmlns="http://www.w3.org/2000/svg" xmlns:xlink="http://www.w3.org/1999/xlink" x="0px" y="0px"
	 viewBox="0 0 283.5 283.5" style="enable-background:new 0 0 283.5 283.5;" xml:space="preserve">
<style type="text/css">
	.st0{fill:none;stroke:#000000;stroke-miterlimit:10;}
	.st1{fill:#7EE8BC;}
	.st2{fill:#F4F498;}
</style>
<g>
	<g>
		<path class="st0" d="M139.8,259.1c-64.3,0-116.4-52.2-116.4-116.8S75.5,25.5,139.8,25.5s116.4,52.2,116.4,116.8
			S204.2,259.1,139.8,259.1z"/>
		<path class="st0" d="M236.8,142.3c0-53.8-43.4-97.3-97-97.3s-97,43.5-97,97.3s43.4,97.3,97,97.3S236.8,196.1,236.8,142.3z"/>
		<path class="st0" d="M139.8,220.2c-42.9,0-77.6-34.8-77.6-77.9s34.7-77.9,77.6-77.9s77.6,34.8,77.6,77.9S182.7,220.2,139.8,220.2z
			"/>
		<path class="st0" d="M198,142.3c0-32.3-26-58.4-58.2-58.4S81.6,110,81.6,142.3s26,58.4,58.2,58.4S198,174.6,198,142.3z"/>
		<path class="st0" d="M139.8,181.2c-21.4,0-38.8-17.4-38.8-38.9c0-21.5,17.4-38.9,38.8-38.9s38.8,17.4,38.8,38.9
			C178.6,163.8,161.3,181.2,139.8,181.2z"/>
	</g>
</g>
<circle class="st1" cx="44.4" cy="127" r="3.8"/>
<circle class="st1" cx="55" cy="94.6" r="3.8"/>
<circle class="st1" cx="77.1" cy="68" r="3.8"/>
<circle class="st1" cx="105.7" cy="51.9" r="3.8"/>
<circle class="st1" cx="234.8" cy="160" r="3.8"/>
<circle class="st1" cx="235.2" cy="126.6" r="3.8"/>
<circle class="st1" cx="225.1" cy="95" r="3.8"/>
<circle class="st1" cx="173.5" cy="50.9" r="3.8"/>
<circle class="st1" cx="203.3" cy="68.2" r="3.8"/>
<circle class="st2" cx="140.1" cy="45.3" r="3.8"/>
<circle class="st1" cx="45" cy="160.4" r="3.8"/>
<circle class="st1" cx="56.1" cy="192" r="3.8"/>
<circle class="st1" cx="77.7" cy="217.1" r="3.8"/>
<circle class="st1" cx="223.2" cy="191.4" r="3.8"/>
<circle class="st1" cx="202.1" cy="217" r="3.8"/>
<circle class="st1" cx="172.5" cy="234.1" r="3.8"/>
<circle class="st1" cx="107.3" cy="233.9" r="3.8"/>
<circle class="st1" cx="140.1" cy="239.8" r="3.8"/>
<circle class="st1" cx="256" cy="142" r="3.8"/>
<circle class="st1" cx="112.4" cy="69.2" r="3.8"/>
<circle class="st1" cx="140.1" cy="64.4" r="3.8"/>
<circle class="st1" cx="166.8" cy="69.2" r="3.8"/>
<circle class="st1" cx="207.7" cy="104.4" r="3.8"/>
<circle class="st1" cx="140.1" cy="45.3" r="3.8"/>
<circle class="st1" cx="89.5" cy="83.4" r="3.8"/>
<circle class="st1" cx="72.2" cy="104.3" r="3.8"/>
<circle class="st1" cx="216" cy="130.3" r="3.8"/>
<circle class="st1" cx="215.7" cy="157" r="3.8"/>
<circle class="st1" cx="205.9" cy="181.7" r="3.8"/>
<circle class="st1" cx="62.5" cy="130" r="3.8"/>
<circle class="st1" cx="64.2" cy="156.7" r="3.8"/>
<circle class="st1" cx="73.5" cy="182.6" r="3.8"/>
<circle class="st1" cx="90.4" cy="202.9" r="3.8"/>
<circle class="st1" cx="140.1" cy="220.6" r="3.8"/>
<circle class="st1" cx="166.8" cy="215.9" r="3.8"/>
<circle class="st1" cx="188.7" cy="202.6" r="3.8"/>
<circle class="st1" cx="113.8" cy="215.7" r="3.8"/>
<circle class="st1" cx="190.5" cy="83.4" r="3.8"/>
<circle class="st1" cx="140.1" cy="83.6" r="3.8"/>
<circle class="st1" cx="140.1" cy="200.5" r="3.8"/>
<circle class="st1" cx="81.6" cy="143" r="3.8"/>
<circle class="st1" cx="198.5" cy="143" r="3.8"/>
<circle class="st1" cx="98.9" cy="100.8" r="3.8"/>
<circle class="st1" cx="181.3" cy="100.8" r="3.8"/>
<circle class="st1" cx="98.9" cy="183.2" r="3.8"/>
<circle class="st1" cx="181.3" cy="184.2" r="3.8"/>
<circle class="st1" cx="100.8" cy="142" r="3.8"/>
<circle class="st1" cx="178.4" cy="143" r="3.8"/>
<circle class="st1" cx="140.5" cy="143.5" r="15.5"/>
</svg>
