<svg id="Layer_1" data-name="Layer 1" xmlns="http://www.w3.org/2000/svg" viewBox="0 0 236.9 234.63"><defs><style>.cls-1{fill:none;stroke:#000;stroke-miterlimit:10;}.cls-2{fill:#7ee8bc;}.cls-3{fill:#f4f498;}</style></defs><title>silver1</title><path class="cls-1" d="M139.84,259.1c-64.34,0-116.4-52.25-116.4-116.82S75.5,25.47,139.84,25.47s116.4,52.25,116.4,116.82S204.18,259.1,139.84,259.1Z" transform="translate(-22.94 -24.97)"/><path class="cls-1" d="M236.84,142.28a97,97,0,1,0-97,97.35A97.12,97.12,0,0,0,236.84,142.28Z" transform="translate(-22.94 -24.97)"/><path class="cls-1" d="M139.84,220.16a77.88,77.88,0,1,1,77.6-77.88A77.69,77.69,0,0,1,139.84,220.16Z" transform="translate(-22.94 -24.97)"/><path class="cls-1" d="M198,142.28a58.2,58.2,0,1,0-58.2,58.41A58.27,58.27,0,0,0,198,142.28Z" transform="translate(-22.94 -24.97)"/><path class="cls-1" d="M139.84,181.22a38.94,38.94,0,1,1,38.8-38.94A38.85,38.85,0,0,1,139.84,181.22Z" transform="translate(-22.94 -24.97)"/><circle class="cls-2" cx="19.42" cy="117.08" r="3.83"/><circle class="cls-2" cx="27.09" cy="80.67" r="3.83"/><circle class="cls-2" cx="48.16" cy="49.05" r="3.83"/><circle class="cls-2" cx="79.78" cy="27.98" r="3.83"/><circle class="cls-2" cx="213.91" cy="117.08" r="3.83"/><circle class="cls-2" cx="206.25" cy="80.67" r="3.83"/><circle class="cls-2" cx="185.17" cy="49.05" r="3.83"/><circle class="cls-2" cx="153.55" cy="27.98" r="3.83"/><circle class="cls-2" cx="135.35" cy="22.23" r="3.83"/><circle class="cls-3" cx="117.15" cy="20.31" r="3.83"/><circle class="cls-2" cx="27.09" cy="154.44" r="3.83"/><circle class="cls-2" cx="48.16" cy="186.06" r="3.83"/><circle class="cls-2" cx="79.78" cy="207.13" r="3.83"/><circle class="cls-2" cx="206.25" cy="154.44" r="3.83"/><circle class="cls-2" cx="185.17" cy="186.06" r="3.83"/><circle class="cls-2" cx="153.55" cy="207.13" r="3.83"/><circle class="cls-2" cx="135.35" cy="212.88" r="3.83"/><circle class="cls-2" cx="117.15" cy="214.8" r="3.83"/><circle class="cls-2" cx="233.07" cy="117.08" r="3.83"/><circle class="cls-2" cx="87.45" cy="45.22" r="3.83"/><circle class="cls-2" cx="117.15" cy="39.47" r="3.83"/><circle class="cls-2" cx="146.85" cy="45.22" r="3.83"/><circle class="cls-2" cx="171.75" cy="62.47" r="3.83"/><circle class="cls-2" cx="117.15" cy="20.31" r="3.83"/><circle class="cls-2" cx="62.54" cy="62.47" r="3.83"/><circle class="cls-2" cx="45.29" cy="87.38" r="3.83"/><circle class="cls-2" cx="188.04" cy="88.33" r="3.83"/><circle class="cls-2" cx="194.75" cy="117.08" r="3.83"/><circle class="cls-2" cx="189" cy="147.73" r="3.83"/><circle class="cls-2" cx="39.54" cy="117.08" r="3.83"/><circle class="cls-2" cx="45.29" cy="146.78" r="3.83"/><circle class="cls-2" cx="61.58" cy="172.64" r="3.83"/><circle class="cls-2" cx="87.45" cy="188.93" r="3.83"/><circle class="cls-2" cx="117.15" cy="195.64" r="3.83"/><circle class="cls-2" cx="146.85" cy="188.93" r="3.83"/><circle class="cls-2" cx="171.75" cy="172.64" r="3.83"/><circle class="cls-2" cx="101.82" cy="193.72" r="3.83"/><circle class="cls-2" cx="131.52" cy="41.39" r="3.83"/><circle class="cls-2" cx="117.15" cy="58.63" r="3.83"/><circle class="cls-2" cx="117.15" cy="175.52" r="3.83"/><circle class="cls-2" cx="58.7" cy="118.03" r="3.83"/><circle class="cls-2" cx="175.59" cy="118.03" r="3.83"/><circle class="cls-2" cx="75.95" cy="75.88" r="3.83"/><circle class="cls-2" cx="158.34" cy="75.88" r="3.83"/><circle class="cls-2" cx="75.95" cy="158.27" r="3.83"/><circle class="cls-2" cx="158.34" cy="159.23" r="3.83"/><circle class="cls-2" cx="77.86" cy="117.08" r="3.83"/><circle class="cls-2" cx="155.47" cy="118.03" r="3.83"/><circle class="cls-2" cx="117.56" cy="118.53" r="15.5"/></svg>