<?xml version="1.0" encoding="utf-8"?>
<!-- Generator: Adobe Illustrator 21.0.0, SVG Export Plug-In . SVG Version: 6.00 Build 0)  -->
<svg version="1.1" id="Layer_1" xmlns="http://www.w3.org/2000/svg" xmlns:xlink="http://www.w3.org/1999/xlink" x="0px" y="0px"
	 viewBox="0 0 283.5 283.5" style="enable-background:new 0 0 283.5 283.5;" xml:space="preserve">
<style type="text/css">
	.st0{fill:#98DBED;}
	.st1{fill:#42BED3;}
	.st2{fill:#FFFFFF;}
	.st3{fill:#ED1E79;}
</style>
<g id="Layer_3">
</g>
<g id="Layer_2">
	<path d="M19.4-9.5"/>
	<g>
		<g>
			<polygon class="st0" points="62,70.1 227.5,70.1 270.4,135.8 144.8,267.1 19.1,135.8 			"/>
		</g>
		<g>
			<g>
				<path class="st1" d="M62,71.3c33.5,0,67,0,100.4,0c18.7,0,37.3,0,56,0c2.2,0,4.6,0.3,6.8,0c3.4-0.5,1.5,1.4,0.3-1.2
					c2.7,5.6,7,10.7,10.4,15.8c10.7,16.5,21.6,33.2,32.3,49.7c0.2-1,0.3-2,0.3-3.1c-36.8,38.3-73.3,76.7-110.1,115
					c-5.3,5.4-10.4,10.9-15.7,16.3c1.2,0,2.4,0,3.6,0c-36.8-38.3-73.3-76.7-110.1-115c-5.3-5.4-10.4-10.9-15.7-16.3
					c0.2,1,0.3,2,0.3,3.1c14.3-22,28.6-43.7,42.9-65.7c1.9-2.7-2.6-5.3-4.4-2.6c-14,22-28.2,43.9-42.5,65.7c-0.7,1-0.3,2.4,0.3,3.1
					c36.8,38.3,73.3,76.7,110.1,115c5.3,5.4,10.4,10.9,15.7,16.3c1,1,2.7,1,3.6,0c36.8-38.3,73.3-76.7,110.1-115
					c5.3-5.4,10.4-10.9,15.7-16.3c0.7-0.9,1-2.2,0.3-3.1c-9.5-14.6-19.1-29.3-28.6-43.9c-4.4-6.6-8.3-14.8-13.6-20.8
					c-2-2.2-3.1-2.2-6-2.2c-39.8-0.3-79.6,0-119.6,0c-14.3,0-28.6,0-42.9,0C58.6,66.2,58.6,71.3,62,71.3z"/>
			</g>
		</g>
		<g>
			<g>
				<path class="st1" d="M22,135.6c72.1,0,144.3,0,216.4,0c10.2,0,20.4,0,30.6,0c3.2,0,3.2-5.1,0-5.1c-72.1,0-144.3,0-216.4,0
					c-10.2,0-20.4,0-30.6,0C18.7,130.5,18.6,135.6,22,135.6L22,135.6z"/>
			</g>
		</g>
		<g>
			<g>
				<path class="st1" d="M61.1,71.5c13.6,21.4,27.2,42.9,40.7,64.3c1,1.7,3.4,1.7,4.4,0c13.1-20.4,26.2-41,39.3-61.4
					c-1.5,0-2.9,0-4.4,0c14.1,19.9,28.2,40,42.4,59.9c1.2,1.5,3.2,1.7,4.4,0c13.4-20.9,26.9-41.9,40.5-62.8c1.7-2.7-2.6-5.3-4.4-2.6
					c-13.4,20.9-26.9,41.9-40.5,62.8c1.5,0,2.9,0,4.4,0c-14.1-19.9-28.2-40-42.4-59.9c-1.2-1.5-3.4-1.7-4.4,0
					c-13.1,20.4-26.2,41-39.3,61.4c1.5,0,2.9,0,4.4,0C92.6,111.8,79,90.3,65.5,68.9C63.8,66.2,59.4,68.7,61.1,71.5L61.1,71.5z"/>
			</g>
		</g>
		<g>
			<g>
				<path class="st1" d="M102.3,135.1c13.3,42.9,26.7,85.8,40,128.5c0.7,2.4,4.1,2.4,4.9,0c13.3-42.9,26.7-85.8,40-128.5
					c1-3.1-3.9-4.4-4.9-1.4c-13.3,42.9-26.7,85.8-40,128.5c1.7,0,3.2,0,4.9,0c-13.3-42.9-26.7-85.8-40-128.5
					C106.2,130.7,101.3,132,102.3,135.1L102.3,135.1z"/>
			</g>
		</g>
	</g>
	<g>
		<ellipse class="st2" cx="184.5" cy="128.3" rx="17" ry="26.4"/>
		<g>
			<path d="M199.6,128.3c-0.3,8.7-3.7,24.5-15.1,24.5c-11.2,0-15.1-15.8-15.1-24.5c0-8.5,3.4-22.6,13.6-24.2
				C195.4,102.3,199.3,119.4,199.6,128.3c0,2.4,3.9,2.6,3.7,0c-0.3-10.9-5.1-28.2-18.9-28.2c-13.6,0-18.9,17.4-18.9,28.2
				s5.4,28.2,18.9,28.2c13.8,0,18.5-17.4,18.9-28.2C203.5,125.7,199.6,125.7,199.6,128.3z"/>
		</g>
	</g>
	<g>
		<g>
			<path d="M196.6,111.6c4.8,0.2,8.7-3.2,10-7.7c0.7-2.4-3.1-3.4-3.7-1c-0.7,2-1.9,3.7-3.9,4.4c-1,0.3-1.5,0.5-2.6,0.5
				C194,107.7,194,111.6,196.6,111.6L196.6,111.6z"/>
		</g>
	</g>
	<g>
		<g>
			<path d="M200,118.4c4.8,0.2,8.7-3.2,10-7.7c0.7-2.4-3.1-3.4-3.7-1c-0.7,2-1.9,3.7-3.9,4.4c-1,0.3-1.5,0.5-2.6,0.5
				C197.4,114.5,197.4,118.4,200,118.4L200,118.4z"/>
		</g>
	</g>
	<g>
		<g>
			<path d="M193.2,106.5c4.8,0.2,8.7-3.2,10-7.7c0.7-2.4-3.1-3.4-3.7-1c-0.7,2-1.9,3.7-3.9,4.4c-1,0.3-1.5,0.5-2.6,0.5
				C190.6,102.6,190.6,106.5,193.2,106.5L193.2,106.5z"/>
		</g>
	</g>
	<ellipse class="st1" cx="184.1" cy="128.6" rx="9.9" ry="14"/>
	<path class="st3" d="M136,177.6"/>
	<g>
		<ellipse cx="184.5" cy="128.6" rx="6.3" ry="8.8"/>
	</g>
	<g>
		<g>
			<ellipse class="st2" cx="104.3" cy="128.3" rx="17" ry="26.4"/>
			<g>
				<path d="M85.4,128.3c0.3,10.9,5.1,28.2,18.9,28.2c13.6,0,18.9-17.4,18.9-28.2s-5.4-28.2-18.9-28.2
					C90.6,100,85.8,117.4,85.4,128.3c0,2.4,3.7,2.4,3.7,0c0.3-8.7,3.7-24.5,15.1-24.5c11.2,0,15.1,15.8,15.1,24.5
					c0,8.5-3.4,22.6-13.6,24.2c-12.3,1.9-16.3-15.3-16.5-24.2C89.2,125.7,85.3,125.7,85.4,128.3z"/>
			</g>
		</g>
		<g>
			<g>
				<path d="M92.3,107.7c-0.9,0-1.5,0-2.6-0.5c-2-0.9-3.2-2.4-3.9-4.4c-0.7-2.4-4.4-1.4-3.7,1c1.4,4.4,5.3,7.8,10,7.7
					C94.8,111.6,94.8,107.7,92.3,107.7L92.3,107.7z"/>
			</g>
		</g>
		<g>
			<g>
				<path d="M88.9,114.5c-0.9,0-1.5,0-2.6-0.5c-2-0.9-3.2-2.4-3.9-4.4c-0.7-2.4-4.4-1.4-3.7,1c1.4,4.4,5.3,7.8,10,7.7
					C91.4,118.4,91.4,114.5,88.9,114.5L88.9,114.5z"/>
			</g>
		</g>
		<g>
			<g>
				<path d="M95.7,102.6c-0.9,0-1.5,0-2.6-0.5c-2-0.9-3.2-2.4-3.9-4.4c-0.7-2.4-4.4-1.4-3.7,1c1.4,4.4,5.3,7.8,10,7.7
					C98.2,106.5,98.2,102.6,95.7,102.6L95.7,102.6z"/>
			</g>
		</g>
		<ellipse class="st1" cx="104.2" cy="128.6" rx="9.9" ry="14"/>
		<g>
			<ellipse cx="104.5" cy="128.6" rx="6.3" ry="8.8"/>
		</g>
	</g>
</g>
</svg>
