<svg id="Layer_1" data-name="Layer 1" xmlns="http://www.w3.org/2000/svg" viewBox="0 0 278.72 273.57"><defs><style>.cls-1{fill:none;stroke:#000;stroke-miterlimit:10;}.cls-2{fill:#ef9abc;}.cls-3{fill:#f4f498;}</style></defs><title>platinum1</title><path class="cls-1" d="M275.64,142.28C275.64,67,214.9,6,139.84,6S4,67,4,142.28s60.74,136.28,135.8,136.28S275.64,217.61,275.64,142.28Z" transform="translate(-0.28 -5.5)"/><path class="cls-1" d="M139.84,259.1c-64.34,0-116.4-52.25-116.4-116.82S75.5,25.47,139.84,25.47s116.4,52.25,116.4,116.82S204.18,259.1,139.84,259.1Z" transform="translate(-0.28 -5.5)"/><path class="cls-1" d="M236.84,142.28a97,97,0,1,0-97,97.35A97.12,97.12,0,0,0,236.84,142.28Z" transform="translate(-0.28 -5.5)"/><path class="cls-1" d="M139.84,220.16a77.88,77.88,0,1,1,77.6-77.88A77.69,77.69,0,0,1,139.84,220.16Z" transform="translate(-0.28 -5.5)"/><path class="cls-1" d="M198,142.28a58.2,58.2,0,1,0-58.2,58.41A58.27,58.27,0,0,0,198,142.28Z" transform="translate(-0.28 -5.5)"/><path class="cls-1" d="M139.84,181.22a38.94,38.94,0,1,1,38.8-38.94A38.85,38.85,0,0,1,139.84,181.22Z" transform="translate(-0.28 -5.5)"/><circle class="cls-2" cx="42.07" cy="136.55" r="3.83"/><circle class="cls-2" cx="43.99" cy="118.34" r="3.83"/><circle class="cls-2" cx="49.74" cy="100.14" r="3.83"/><circle class="cls-2" cx="58.36" cy="82.89" r="3.83"/><circle class="cls-2" cx="70.82" cy="68.52" r="3.83"/><circle class="cls-2" cx="86.15" cy="56.07" r="3.83"/><circle class="cls-2" cx="102.43" cy="47.45" r="3.83"/><circle class="cls-2" cx="120.64" cy="41.7" r="3.83"/><circle class="cls-2" cx="236.56" cy="136.55" r="3.83"/><circle class="cls-2" cx="234.65" cy="118.34" r="3.83"/><circle class="cls-2" cx="228.9" cy="100.14" r="3.83"/><circle class="cls-2" cx="220.27" cy="82.89" r="3.83"/><circle class="cls-2" cx="207.82" cy="68.52" r="3.83"/><circle class="cls-2" cx="192.49" cy="56.07" r="3.83"/><circle class="cls-2" cx="176.2" cy="47.45" r="3.83"/><circle class="cls-2" cx="158" cy="41.7" r="3.83"/><circle class="cls-3" cx="139.8" cy="39.78" r="3.83"/><circle class="cls-2" cx="43.99" cy="155.71" r="3.83"/><circle class="cls-2" cx="49.74" cy="173.91" r="3.83"/><circle class="cls-2" cx="58.36" cy="191.16" r="3.83"/><circle class="cls-2" cx="70.82" cy="205.53" r="3.83"/><circle class="cls-2" cx="86.15" cy="217.98" r="3.83"/><circle class="cls-2" cx="102.43" cy="226.6" r="3.83"/><circle class="cls-2" cx="120.64" cy="232.35" r="3.83"/><circle class="cls-2" cx="234.65" cy="155.71" r="3.83"/><circle class="cls-2" cx="228.9" cy="173.91" r="3.83"/><circle class="cls-2" cx="220.27" cy="191.16" r="3.83"/><circle class="cls-2" cx="207.82" cy="205.53" r="3.83"/><circle class="cls-2" cx="192.49" cy="217.98" r="3.83"/><circle class="cls-2" cx="176.2" cy="226.6" r="3.83"/><circle class="cls-2" cx="158" cy="232.35" r="3.83"/><circle class="cls-2" cx="139.8" cy="234.27" r="3.83"/><circle class="cls-2" cx="139.8" cy="19.66" r="3.83"/><circle class="cls-2" cx="183.87" cy="29.24" r="3.83"/><circle class="cls-2" cx="222.19" cy="54.15" r="3.83"/><circle class="cls-2" cx="247.1" cy="92.47" r="3.83"/><circle class="cls-2" cx="255.72" cy="136.55" r="3.83"/><circle class="cls-2" cx="247.1" cy="181.57" r="3.83"/><circle class="cls-2" cx="222.19" cy="218.94" r="3.83"/><circle class="cls-2" cx="183.87" cy="244.81" r="3.83"/><circle class="cls-2" cx="139.8" cy="253.43" r="3.83"/><circle class="cls-2" cx="95.73" cy="244.81" r="3.83"/><circle class="cls-2" cx="57.4" cy="219.9" r="3.83"/><circle class="cls-2" cx="32.49" cy="181.57" r="3.83"/><circle class="cls-2" cx="22.91" cy="136.55" r="3.83"/><circle class="cls-2" cx="31.54" cy="92.47" r="3.83"/><circle class="cls-2" cx="56.45" cy="54.15" r="3.83"/><circle class="cls-2" cx="93.81" cy="27.33" r="3.83"/><circle class="cls-2" cx="116.8" cy="22.54" r="3.83"/><circle class="cls-2" cx="3.83" cy="137.51" r="3.83"/><circle class="cls-2" cx="274.88" cy="136.55" r="3.83"/><circle class="cls-2" cx="110.1" cy="64.69" r="3.83"/><circle class="cls-2" cx="139.8" cy="58.94" r="3.83"/><circle class="cls-2" cx="169.5" cy="64.69" r="3.83"/><circle class="cls-2" cx="194.41" cy="81.94" r="3.83"/><circle class="cls-2" cx="139.8" cy="39.78" r="3.83"/><circle class="cls-2" cx="85.19" cy="81.94" r="3.83"/><circle class="cls-2" cx="67.94" cy="106.85" r="3.83"/><circle class="cls-2" cx="210.69" cy="107.8" r="3.83"/><circle class="cls-2" cx="217.4" cy="136.55" r="3.83"/><circle class="cls-2" cx="211.65" cy="167.2" r="3.83"/><circle class="cls-2" cx="62.19" cy="136.55" r="3.83"/><circle class="cls-2" cx="67.94" cy="166.25" r="3.83"/><circle class="cls-2" cx="84.23" cy="192.11" r="3.83"/><circle class="cls-2" cx="110.1" cy="208.4" r="3.83"/><circle class="cls-2" cx="139.8" cy="215.11" r="3.83"/><circle class="cls-2" cx="169.5" cy="208.4" r="3.83"/><circle class="cls-2" cx="194.41" cy="192.11" r="3.83"/><circle class="cls-2" cx="124.47" cy="213.19" r="3.83"/><circle class="cls-2" cx="154.17" cy="60.86" r="3.83"/><circle class="cls-2" cx="139.8" cy="78.1" r="3.83"/><circle class="cls-2" cx="139.8" cy="194.99" r="3.83"/><circle class="cls-2" cx="81.35" cy="137.5" r="3.83"/><circle class="cls-2" cx="198.24" cy="137.5" r="3.83"/><circle class="cls-2" cx="98.6" cy="95.35" r="3.83"/><circle class="cls-2" cx="180.99" cy="95.35" r="3.83"/><circle class="cls-2" cx="98.6" cy="177.74" r="3.83"/><circle class="cls-2" cx="180.99" cy="178.7" r="3.83"/><circle class="cls-2" cx="100.52" cy="136.55" r="3.83"/><circle class="cls-2" cx="178.12" cy="137.5" r="3.83"/><circle class="cls-2" cx="139.22" cy="136" r="15.5"/></svg>