<?xml version="1.0" encoding="utf-8"?>
<!-- Generator: Adobe Illustrator 21.0.0, SVG Export Plug-In . SVG Version: 6.00 Build 0)  -->
<svg version="1.1" id="Layer_1" xmlns="http://www.w3.org/2000/svg" xmlns:xlink="http://www.w3.org/1999/xlink" x="0px" y="0px"
	 viewBox="0 0 283.5 283.5" style="enable-background:new 0 0 283.5 283.5;" xml:space="preserve">
<style type="text/css">
	.st0{fill:none;stroke:#000000;stroke-miterlimit:10;}
	.st1{fill:#EF9ABC;}
	.st2{fill:#F4F498;}
</style>
<g>
	<g>
		<path class="st0" d="M274.8,143.6C274.8,69.5,215,9.5,141.1,9.5S7.5,69.5,7.5,143.6s59.7,134.1,133.6,134.1
			S274.8,217.7,274.8,143.6z"/>
		<path class="st0" d="M141.1,258.6c-63.3,0-114.5-51.4-114.5-114.9S77.9,28.7,141.1,28.7s114.5,51.4,114.5,114.9
			S204.5,258.6,141.1,258.6z"/>
		<path class="st0" d="M236.6,143.6c0-52.9-42.7-95.7-95.5-95.7s-95.5,42.8-95.5,95.7s42.7,95.7,95.5,95.7S236.6,196.6,236.6,143.6z
			"/>
		<path class="st0" d="M141.1,220.3c-42.2,0-76.4-34.2-76.4-76.7S98.9,67,141.1,67s76.4,34.2,76.4,76.7S183.3,220.3,141.1,220.3z"/>
		<path class="st0" d="M198.4,143.6c0-31.8-25.6-57.5-57.3-57.5s-57.3,25.7-57.3,57.5s25.6,57.5,57.3,57.5S198.4,175.4,198.4,143.6z
			"/>
		<path class="st0" d="M141.1,181.9c-21.1,0-38.2-17.1-38.2-38.3s17.1-38.3,38.2-38.3s38.2,17.1,38.2,38.3S162.3,181.9,141.1,181.9z
			"/>
	</g>
</g>
<circle class="st1" cx="45.3" cy="143.3" r="3.7"/>
<circle class="st1" cx="47.2" cy="125.4" r="3.7"/>
<circle class="st1" cx="52.8" cy="107.5" r="3.7"/>
<circle class="st1" cx="61.2" cy="90.6" r="3.7"/>
<circle class="st1" cx="73.5" cy="76.4" r="3.7"/>
<circle class="st1" cx="88.6" cy="64.2" r="3.7"/>
<circle class="st1" cx="104.6" cy="55.7" r="3.7"/>
<circle class="st1" cx="122.5" cy="50.1" r="3.7"/>
<circle class="st1" cx="236.6" cy="143.3" r="3.7"/>
<circle class="st1" cx="234.7" cy="125.4" r="3.7"/>
<circle class="st1" cx="229.1" cy="107.5" r="3.7"/>
<circle class="st1" cx="220.6" cy="90.6" r="3.7"/>
<circle class="st1" cx="208.3" cy="76.4" r="3.7"/>
<circle class="st1" cx="193.3" cy="64.2" r="3.7"/>
<circle class="st1" cx="177.2" cy="55.7" r="3.7"/>
<circle class="st1" cx="159.3" cy="50.1" r="3.7"/>
<circle class="st2" cx="141.4" cy="48.2" r="3.7"/>
<circle class="st1" cx="47.2" cy="162.2" r="3.7"/>
<circle class="st1" cx="52.8" cy="180.2" r="3.7"/>
<circle class="st1" cx="61.2" cy="197.2" r="3.7"/>
<circle class="st1" cx="73.5" cy="211.2" r="3.7"/>
<circle class="st1" cx="88.6" cy="223.5" r="3.7"/>
<circle class="st1" cx="104.6" cy="232" r="3.7"/>
<circle class="st1" cx="122.5" cy="237.7" r="3.7"/>
<circle class="st1" cx="234.7" cy="162.2" r="3.7"/>
<circle class="st1" cx="229.1" cy="180.2" r="3.7"/>
<circle class="st1" cx="220.6" cy="197.2" r="3.7"/>
<circle class="st1" cx="208.3" cy="211.2" r="3.7"/>
<circle class="st1" cx="193.3" cy="223.5" r="3.7"/>
<circle class="st1" cx="177.2" cy="232" r="3.7"/>
<circle class="st1" cx="159.3" cy="237.7" r="3.7"/>
<circle class="st1" cx="141.4" cy="239.6" r="3.7"/>
<circle class="st1" cx="141.4" cy="28.4" r="3.7"/>
<circle class="st1" cx="179.9" cy="35.8" r="3.7"/>
<circle class="st1" cx="214.6" cy="55.5" r="3.7"/>
<circle class="st1" cx="240.1" cy="86.3" r="3.7"/>
<circle class="st1" cx="254.5" cy="122.7" r="3.7"/>
<circle class="st1" cx="253.9" cy="163.1" r="3.7"/>
<circle class="st1" cx="240.2" cy="200.8" r="3.7"/>
<circle class="st1" cx="215.3" cy="231.2" r="3.7"/>
<circle class="st1" cx="141.4" cy="258.4" r="3.7"/>
<circle class="st1" cx="102" cy="251.9" r="3.7"/>
<circle class="st1" cx="67.2" cy="231.3" r="3.7"/>
<circle class="st1" cx="41.7" cy="200.5" r="3.7"/>
<circle class="st1" cx="28.4" cy="163" r="3.7"/>
<circle class="st1" cx="28" cy="122.7" r="3.7"/>
<circle class="st1" cx="41.6" cy="85" r="3.7"/>
<circle class="st1" cx="102.1" cy="34.9" r="3.7"/>
<circle class="st1" cx="7.6" cy="144.3" r="3.7"/>
<circle class="st1" cx="274.4" cy="143.3" r="3.7"/>
<circle class="st1" cx="92.5" cy="84.5" r="3.7"/>
<circle class="st1" cx="141.4" cy="67" r="3.7"/>
<circle class="st1" cx="167.7" cy="71.7" r="3.7"/>
<circle class="st1" cx="189.2" cy="84.7" r="3.7"/>
<circle class="st1" cx="141.4" cy="48.2" r="3.7"/>
<circle class="st1" cx="75.9" cy="105.4" r="3.7"/>
<circle class="st1" cx="66.7" cy="128.9" r="3.7"/>
<circle class="st1" cx="207.3" cy="105.3" r="3.7"/>
<circle class="st1" cx="216.8" cy="129.6" r="3.7"/>
<circle class="st1" cx="216" cy="155.8" r="3.7"/>
<circle class="st1" cx="66" cy="156.1" r="3.7"/>
<circle class="st1" cx="74.6" cy="181.4" r="3.7"/>
<circle class="st1" cx="92.6" cy="202" r="3.7"/>
<circle class="st1" cx="115.1" cy="216.1" r="3.7"/>
<circle class="st1" cx="141.4" cy="220.7" r="3.7"/>
<circle class="st1" cx="190.3" cy="202.3" r="3.7"/>
<circle class="st1" cx="207.9" cy="181.3" r="3.7"/>
<circle class="st1" cx="167.7" cy="215.9" r="3.7"/>
<circle class="st1" cx="141.4" cy="85.9" r="3.7"/>
<circle class="st1" cx="141.4" cy="200.9" r="3.7"/>
<circle class="st1" cx="83.9" cy="144.3" r="3.7"/>
<circle class="st1" cx="198.9" cy="144.3" r="3.7"/>
<circle class="st1" cx="100.9" cy="102.8" r="3.7"/>
<circle class="st1" cx="182" cy="102.8" r="3.7"/>
<circle class="st1" cx="100.9" cy="183.9" r="3.7"/>
<circle class="st1" cx="182" cy="184.9" r="3.7"/>
<circle class="st1" cx="102.8" cy="143.3" r="3.7"/>
<circle class="st1" cx="179.1" cy="144.3" r="3.7"/>
<circle class="st1" cx="140.8" cy="142.9" r="15.3"/>
<circle class="st1" cx="181.5" cy="252.3" r="3.7"/>
<circle class="st1" cx="115.5" cy="72.2" r="3.7"/>
<circle class="st1" cx="68.3" cy="55.5" r="3.7"/>
</svg>
