<?xml version="1.0" encoding="utf-8"?>
<!-- Generator: Adobe Illustrator 21.0.0, SVG Export Plug-In . SVG Version: 6.00 Build 0)  -->
<svg version="1.1" id="Layer_1" xmlns="http://www.w3.org/2000/svg" xmlns:xlink="http://www.w3.org/1999/xlink" x="0px" y="0px"
	 viewBox="0 0 283.5 283.5" style="enable-background:new 0 0 283.5 283.5;" xml:space="preserve">
<style type="text/css">
	.st0{fill:#EF9ABC;}
	.st1{fill:#E57FA8;}
	.st2{stroke:#000000;stroke-miterlimit:10;}
	.st3{fill:#FFFFFF;}
</style>
<g>
	<g>
		<path class="st0" d="M142.5,28C79.3,28,28,79.3,28,142.5S79.3,257,142.5,257c63.2,0,114.5-51.3,114.5-114.5S205.7,28,142.5,28z
			 M142.5,242.4c-55.1,0-99.9-44.8-99.9-99.9c0-55.1,44.8-99.9,99.9-99.9c55.1,0,100,44.8,100,99.9
			C242.5,197.6,197.6,242.4,142.5,242.4z"/>
		<g>
			<path class="st1" d="M142.5,26.5c-48.1,0.3-92,30.5-108.8,75.6c-17,45.8-2.7,98.8,35,129.8c37.5,30.9,91.8,35.1,133.5,10
				c41.5-24.9,63.4-74.3,54.2-121.8c-9.2-47.4-48.5-85.1-96.2-92.3C154.3,27,148.4,26.5,142.5,26.5c-1.9,0-1.9,3,0,3
				c46.9,0.3,89.9,29.8,106.1,74.1c16.3,44.5,2.5,95.5-33.9,125.9c-36.4,30.4-89.7,34.4-130.4,10c-40.5-24.3-62-72.7-52.7-119.1
				c9.1-45.7,46.7-81.9,92.7-89.4c6-1,12.1-1.4,18.2-1.4C144.4,29.5,144.4,26.5,142.5,26.5z"/>
			<path class="st1" d="M142.5,240.9c-41.1-0.3-78.8-26.4-92.7-65.2C36,137,48.2,93,79.7,66.7c31.8-26.5,78.2-29.9,113.6-8.5
				c35.2,21.3,53.9,63.5,45.7,103.9C229.7,207.6,188.8,240.6,142.5,240.9c-1.9,0-1.9,3,0,3c42-0.3,80.4-26.7,95.1-66.2
				c14.9-40.1,2.3-86.5-30.7-113.5c-32.8-27-80.3-30.6-116.7-8.6C54,77.5,34.8,120.6,43,162.2c9.2,47.1,51.8,81.4,99.5,81.8
				C144.4,243.9,144.4,240.9,142.5,240.9z"/>
		</g>
	</g>
	<g>
		<path class="st0" d="M142.5,45.2c-53.6,0-97.3,43.6-97.3,97.3c0,53.7,43.6,97.3,97.3,97.3c53.7,0,97.3-43.6,97.3-97.3
			C239.8,88.9,196.2,45.2,142.5,45.2z M142.5,229C94.8,229,56,190.2,56,142.5C56,94.8,94.8,56,142.5,56c47.7,0,86.5,38.8,86.5,86.5
			C229,190.2,190.2,229,142.5,229z"/>
		<g>
			<path class="st1" d="M142.5,43.7C101.4,44,64,69.9,49.7,108.6c-14.4,39.2-1.7,84.5,30.8,110.7c32,25.8,77.8,29,113,7.8
				c35.4-21.4,54-63.7,45.9-104.2C230.1,77.2,188.8,44.1,142.5,43.7c-1.9,0-1.9,3,0,3C182.4,47,219,72.3,232.6,110
				c13.6,37.7,1.6,80.8-29.2,106.3c-30.9,25.6-76,28.9-110.4,8.1c-34.2-20.7-52.4-61.6-44.5-100.9c8.9-44.4,48.9-76.6,93.9-76.9
				C144.4,46.7,144.4,43.7,142.5,43.7z"/>
			<path class="st1" d="M142.5,227.5c-35.4-0.3-67.9-22.6-80-56.1C50.5,138,61,99.9,88.2,77.1c27.5-23,67.7-25.9,98.3-7.4
				c30.5,18.5,46.5,55.1,39.2,90.1C217.6,199,182.3,227.2,142.5,227.5c-1.9,0-1.9,3,0,3c36.6-0.3,69.9-23.2,82.6-57.7
				c12.9-34.9,1.7-75.3-27.2-98.7c-28.5-23.1-69.5-26.1-100.9-7c-31.3,19-47.8,56.2-40.9,92.1c7.9,41,44.9,70.9,86.4,71.2
				C144.4,230.5,144.4,227.5,142.5,227.5z"/>
		</g>
	</g>
	<g>
		<path class="st0" d="M142.5,58.6c-46.2,0-83.9,37.6-83.9,83.9c0,46.3,37.6,83.9,83.9,83.9c46.3,0,83.9-37.6,83.9-83.9
			C226.4,96.3,188.8,58.6,142.5,58.6z M142.5,213.6c-39.2,0-71-31.9-71-71.1c0-39.2,31.9-71,71-71c39.2,0,71.1,31.9,71.1,71
			C213.6,181.7,181.7,213.6,142.5,213.6z"/>
		<g>
			<path class="st1" d="M142.5,57.1c-35.4,0.3-67.6,22.5-80,55.7c-12.6,33.7-1.8,72.9,26,95.6c27.7,22.6,67.6,25.6,98.2,7
				c30.4-18.5,46.5-54.9,39.5-89.8C218.3,86.1,182.6,57.5,142.5,57.1c-1.9,0-1.9,3,0,3c34.5,0.3,66,22.1,77.6,54.8
				c11.4,32.1,1.4,68.7-24.7,90.6c-26.6,22.5-65.8,25.5-95.6,7.4c-29.2-17.8-44.8-52.8-38.1-86.4c7.6-38.3,41.9-66.1,80.8-66.4
				C144.4,60.1,144.4,57.1,142.5,57.1z"/>
			<path class="st1" d="M142.5,212.1c-29-0.3-55.6-18.5-65.4-46c-9.8-27.3-1.2-58.6,21.1-77.1c22.4-18.6,55-21.2,80-6.2
				c25.1,15,38.4,44.9,32.5,73.6C204.1,188.6,175.2,211.8,142.5,212.1c-1.9,0-1.9,3,0,3c30.2-0.3,57.6-19.2,68.1-47.6
				c10.6-28.6,1.4-61.7-22.1-81c-23.6-19.3-57.7-21.8-83.7-5.9c-25.7,15.7-39.2,46.4-33.5,76c6.6,33.8,37,58.2,71.2,58.5
				C144.4,215.1,144.4,212.1,142.5,212.1z"/>
		</g>
	</g>
	<g>
		<path class="st0" d="M142.5,74.1c-37.7,0-68.4,30.7-68.4,68.4s30.7,68.4,68.4,68.4c37.7,0,68.4-30.7,68.4-68.4
			S180.2,74.1,142.5,74.1z M142.5,183.3c-22.6,0-40.8-18.3-40.8-40.8s18.3-40.8,40.8-40.8c22.6,0,40.8,18.3,40.8,40.8
			S165.1,183.3,142.5,183.3z"/>
		<g>
			<path class="st1" d="M142.5,72.6c-29.1,0.3-55.6,18.5-65.7,46c-10.2,27.9-1,60.1,22.2,78.5c22.9,18.2,55.6,20.2,80.4,4.7
				c24.6-15.4,37.3-44.9,31.6-73.3C204.5,96.1,175.2,72.9,142.5,72.6c-1.9,0-1.9,3,0,3c27.6,0.3,52.9,17.4,62.7,43.4
				c9.7,25.9,2,55.7-18.7,73.8c-21.3,18.7-53,21.7-77.5,7.5c-24.3-14.2-37.5-42.9-32.1-70.6c6.1-31.3,34-53.9,65.7-54.2
				C144.4,75.6,144.4,72.6,142.5,72.6z"/>
			<path class="st1" d="M142.5,181.8c-16.6-0.3-31.6-10.5-37.1-26.3c-5.4-15.2-0.5-32.6,11.7-43c12.5-10.7,31.1-12.2,45.3-3.9
				c14.4,8.4,22,25.4,18.7,41.8C177.4,168.7,161,181.5,142.5,181.8c-1.9,0-1.9,3,0,3c17.5-0.3,33.3-10.8,39.6-27.3
				c6.4-16.7,1.2-36.2-12.5-47.6c-13.5-11.2-33.2-12.9-48.4-4c-15.4,9-23.5,27-20.2,44.5c3.7,20,21.5,34,41.6,34.4
				C144.4,184.9,144.4,181.9,142.5,181.8z"/>
		</g>
	</g>
	<g>
		<path class="st0" d="M158.3,142.5c0,8.7-7.1,15.8-15.8,15.8c-8.7,0-15.7-7.1-15.7-15.8c0-8.7,7.1-15.8,15.7-15.8
			C151.2,126.7,158.3,133.8,158.3,142.5z"/>
		<g>
			<path class="st1" d="M156.8,142.5c-0.3,7.8-6.3,14.2-14.3,14.3c-7.7,0.1-14.3-6.6-14.2-14.3c0.1-7.7,6.4-14.3,14.2-14.3
				C150.5,128.2,156.4,134.7,156.8,142.5c0.1,1.9,3.1,1.9,3,0c-0.4-9.4-7.6-17.2-17.3-17.3c-9.4,0-17.3,7.9-17.2,17.3
				c0,9.4,7.8,17.3,17.2,17.3c9.7,0,16.9-7.9,17.3-17.3C159.8,140.6,156.8,140.6,156.8,142.5z"/>
		</g>
	</g>
</g>
<path class="st2" d="M170.5,61.5c1.1-2,2.4-4.3,5-6c1-0.7,3.1-2,6-2c2.8,0,4.8,1.2,6,2c3.6,2.3,5.3,5.4,6,7c4.3,9.2,1.6,19,1,19
	c-0.5,0,0.4-6.4-3-14c-0.9-1.9-2.4-5.3-6-7c-0.7-0.3-2.6-1.2-5-1c-3.7,0.3-6,2.9-7,4c-2.5,2.8-3.3,5.9-4,9c-1.2,5.3-0.7,9-1,9
	c-0.3,0-1.3-4.1-1-9C167.9,66.5,170,62.4,170.5,61.5z"/>
<g>
	<g>
		<ellipse class="st3" cx="181.4" cy="79.1" rx="12.9" ry="19.9"/>
		<g>
			<path d="M167.4,79.1c0.2,8.1,3.8,21.1,14,21.1c10.1,0,14-13,14-21.1c0-8.1-3.9-21.1-14-21.1C171.2,58,167.6,71,167.4,79.1
				c0,1.4,2.2,1.4,2.2,0c0.2-6.7,2.9-18.8,11.8-18.8c8.7,0,11.8,12.1,11.8,18.8c0,6.7-3.1,18.9-11.8,18.8
				c-8.8-0.1-11.6-12.1-11.8-18.8C169.6,77.6,167.4,77.6,167.4,79.1z"/>
		</g>
	</g>
	<ellipse class="st1" cx="181.3" cy="79.4" rx="7.5" ry="10.6"/>
	<g>
		<ellipse cx="181.5" cy="79.4" rx="4.8" ry="6.8"/>
	</g>
</g>
<path class="st2" d="M190.5,58.5c0.6-0.3,5.3,4.4,7,10c0.3,0.8,0.7,2.6,2,3c1.1,0.4,2.6-0.3,4-1c1.3-0.6,1.9-1.1,2-1
	c0.2,0.2-1.5,2.1-4,5c-2,2.4-3,3.6-4,5c-2.8,4.2-3.6,7.1-4,7c-0.6-0.1,0.9-4.7,1-10C194.7,66.2,189.8,58.8,190.5,58.5z"/>
<path class="st2" d="M117.5,61.5c-1.1-2-2.4-4.3-5-6c-1-0.7-3.1-2-6-2c-2.8,0-4.8,1.2-6,2c-3.6,2.3-5.3,5.4-6,7
	c-4.3,9.2-1.6,19-1,19c0.5,0-0.4-6.4,3-14c0.9-1.9,2.4-5.3,6-7c0.7-0.3,2.6-1.2,5-1c3.7,0.3,6,2.9,7,4c2.5,2.8,3.3,5.9,4,9
	c1.2,5.3,0.7,9,1,9c0.3,0,1.3-4.1,1-9C120.1,66.5,118,62.4,117.5,61.5z"/>
<g>
	<g>
		<ellipse class="st3" cx="106.5" cy="79.1" rx="12.9" ry="19.9"/>
		<g>
			<path d="M118.3,79.1c-0.2,6.7-2.9,18.8-11.8,18.8c-8.7,0-11.8-12.1-11.8-18.8c0-6.7,3.1-18.9,11.8-18.8
				C115.4,60.4,118.1,72.3,118.3,79.1c0,1.4,2.3,1.5,2.2,0c-0.2-8.1-3.8-21.1-14-21.1c-10.1,0-14,13-14,21.1c0,8.1,3.9,21.1,14,21.1
				c10.2,0,13.8-13,14-21.1C120.6,77.6,118.3,77.6,118.3,79.1z"/>
		</g>
	</g>
	<ellipse class="st1" cx="106.7" cy="79.4" rx="7.5" ry="10.6"/>
	<g>
		<ellipse cx="106.4" cy="79.4" rx="4.8" ry="6.8"/>
	</g>
</g>
<path class="st2" d="M97.5,58.5c-0.6-0.3-5.3,4.4-7,10c-0.3,0.8-0.7,2.6-2,3c-1.1,0.4-2.6-0.3-4-1c-1.3-0.6-1.9-1.1-2-1
	c-0.2,0.2,1.5,2.1,4,5c2,2.4,3,3.6,4,5c2.8,4.2,3.6,7.1,4,7c0.6-0.1-0.9-4.7-1-10C93.2,66.2,98.2,58.8,97.5,58.5z"/>
<ellipse transform="matrix(0.7071 -0.7071 0.7071 0.7071 -22.1076 98.6274)" class="st3" cx="108" cy="76" rx="1" ry="2"/>
<ellipse transform="matrix(0.7071 -0.7071 0.7071 0.7071 -0.1407 151.6604)" class="st3" cx="183" cy="76" rx="1" ry="2"/>
</svg>
