<?xml version="1.0" encoding="utf-8"?>
<!-- Generator: Adobe Illustrator 21.0.0, SVG Export Plug-In . SVG Version: 6.00 Build 0)  -->
<svg version="1.1" id="Layer_1" xmlns="http://www.w3.org/2000/svg" xmlns:xlink="http://www.w3.org/1999/xlink" x="0px" y="0px"
	 viewBox="0 0 283.5 368.5" style="enable-background:new 0 0 283.5 368.5;" xml:space="preserve">
<style type="text/css">
	.st0{fill:#EF9ABC;}
	.st1{enable-background:new    ;}
	.st2{fill:#FFFFFF;}
</style>
<g>
	<rect y="0" class="st0" width="316" height="316"/>
</g>
<g class="st1">
	<path class="st2" d="M198.8,115.6c0,18.6-6.1,33.3-18.2,44.3c-12.1,10.9-28.6,16.4-49.3,16.4H73.7v76.4H47.2V56.6h82.5
		c22,0,39,5.1,51.1,15.4C192.8,82.3,198.8,96.8,198.8,115.6z M172.1,115.8c0-25.3-15.2-38-45.6-38H73.7v77.4h53.9
		C157.3,155.2,172.1,142.1,172.1,115.8z"/>
	<path class="st2" d="M291,251.5c-8.3,2.2-16.7,3.3-25.3,3.3c-20,0-30.1-11.4-30.1-34.1V120.3h-17.4v-18.2h18.4l7.4-33.7h16.7v33.7
		h27.8v18.2h-27.8v95c0,7.2,1.2,12.3,3.5,15.2c2.4,2.9,6.5,4.4,12.3,4.4c3.3,0,8.2-0.6,14.5-1.9V251.5z"/>
</g>
</svg>
