<?xml version="1.0" encoding="utf-8"?>
<!-- Generator: Adobe Illustrator 21.0.0, SVG Export Plug-In . SVG Version: 6.00 Build 0)  -->
<svg version="1.1" id="Layer_1" xmlns="http://www.w3.org/2000/svg" xmlns:xlink="http://www.w3.org/1999/xlink" x="0px" y="0px"
	 viewBox="0 0 283.5 283.5" style="enable-background:new 0 0 283.5 283.5;" xml:space="preserve">
<style type="text/css">
	.st0{fill:#92FFC3;}
	.st1{fill:#7EE8B2;}
	.st2{fill:#FFFFFF;}
</style>
<g>
	<path class="st0" d="M170.1,71.6c0-21.2-10.3-58.6-28.2-58.6h0c-17.9,0-28.2,37.5-28.2,58.6c0,25,23,25.3,23,43.9
		c0,15.8,0.1,67.2,0,69.7c-1.1,22.4-10.9,47.3-10.9,68.2c0,17.6,16,17.6,16,17.6h0c0,0,16,0,16-17.6c0-20.8-9.7-45.7-10.9-68.2
		c-0.1-2.4,0-53.9,0-69.7C147.1,97,170.1,96.6,170.1,71.6z"/>
	<g>
		<path class="st1" d="M171.6,71.6c-0.1-10.7-2-21.6-5.3-31.8c-2.9-8.9-7-18.9-14.6-24.8c-16.4-12.6-29.1,10-33.5,23
			c-3.5,10.2-5.7,21.2-5.9,32c-0.2,10,3.3,18.2,10.3,25.3c6.6,6.7,12.7,11.6,12.8,21.8c0,9.2,0,18.4,0,27.6
			c0,17.7,1.4,35.9-1.5,53.4c-2.5,15.1-6.9,29.8-8.7,45c-1.1,9.4-1.8,20.9,7.4,26.5c8.6,5.3,20.8,2.5,25.2-7.2
			c2.4-5.3,1.9-11.4,1.4-17c-0.7-7.4-2.2-14.6-3.7-21.8c-2.8-13-6.4-26.2-6.8-39.6c-0.4-17.7,0-35.4,0-53c0-8.1-1.7-18.4,3-25.5
			c4.8-7.3,12.8-11.6,16.8-19.6C170.7,81.5,171.5,76.7,171.6,71.6c0-1.9-3-1.9-3,0c-0.2,10.8-5.3,17.7-12.8,24.9
			c-5.5,5.2-9.9,10.6-10.3,18.5c-0.7,17.3-0.1,34.7-0.1,52c0,5.9-0.1,11.8,0,17.7c0.4,12.3,3.5,24.5,6.1,36.4
			c2.8,12.6,13.4,48.4-9.8,48.4c-24,0-12-38.1-9.2-50.9c2.5-11.3,5.3-22.8,5.6-34.4c0.1-6.2,0-12.5,0-18.7c0-9.6,0-19.2,0-28.8
			c0-7.8,0.7-16-0.2-23.7c-0.9-7.4-6-12.4-11.1-17.4c-7.6-7.2-11.9-14.7-11.7-25.5c0.2-10.6,2.4-21.3,5.8-31.2
			c2.9-8.3,7.4-19.4,16-23.3c8.7-4,16,3.6,20.1,10.5c5.5,9.2,8.5,20.1,10.2,30.6c0.8,4.9,1.3,9.9,1.3,14.9
			C168.6,73.6,171.6,73.6,171.6,71.6z"/>
	</g>
</g>
<g>
	<g>
		<g>
			<ellipse class="st2" cx="115.5" cy="54.6" rx="15.8" ry="24.4"/>
			<g>
				<path d="M130.2,54.6c-0.2,8.4-3.7,23.3-14.7,23.3c-10.8,0-14.7-14.9-14.7-23.3c0-8.4,3.5-22.3,13.8-23.2
					C126.1,30.2,130,46,130.2,54.6c0,1.4,2.3,1.5,2.2,0c-0.2-9.7-4.6-25.6-16.9-25.6c-12.2,0-16.9,15.9-16.9,25.6
					c0,9.7,4.7,25.6,16.9,25.6c12.3,0,16.7-15.8,16.9-25.6C132.5,53.1,130.2,53.1,130.2,54.6z"/>
			</g>
		</g>
		<ellipse class="st0" cx="115.5" cy="54.7" rx="11.5" ry="16.3"/>
		<g>
			<ellipse cx="115.4" cy="55" rx="5.8" ry="8.3"/>
		</g>
	</g>
	<ellipse transform="matrix(0.7071 -0.7071 0.7071 0.7071 -1.0868 97.3762)" class="st2" cx="117" cy="50" rx="1" ry="2"/>
</g>
<g>
	<g>
		<g>
			<ellipse class="st2" cx="168.5" cy="54.6" rx="15.8" ry="24.4"/>
			<g>
				<path d="M183.2,54.6c-0.2,8.4-3.7,23.3-14.7,23.3c-10.8,0-14.7-14.9-14.7-23.3c0-8.4,3.5-22.3,13.8-23.2
					C179.1,30.2,183,46,183.2,54.6c0,1.4,2.3,1.5,2.2,0c-0.2-9.7-4.6-25.6-16.9-25.6c-12.2,0-16.9,15.9-16.9,25.6
					c0,9.7,4.7,25.6,16.9,25.6c12.3,0,16.7-15.8,16.9-25.6C185.5,53.1,183.2,53.1,183.2,54.6z"/>
			</g>
		</g>
		<ellipse class="st0" cx="168.5" cy="54.7" rx="11.5" ry="16.3"/>
		<g>
			<ellipse cx="168.4" cy="55" rx="5.8" ry="8.3"/>
		</g>
	</g>
	<ellipse transform="matrix(0.7071 -0.7071 0.7071 0.7071 14.4365 134.8528)" class="st2" cx="170" cy="50" rx="1" ry="2"/>
</g>
</svg>
