<?xml version="1.0" encoding="utf-8"?>
<!-- Generator: Adobe Illustrator 21.0.0, SVG Export Plug-In . SVG Version: 6.00 Build 0)  -->
<svg version="1.1" id="Layer_1" xmlns="http://www.w3.org/2000/svg" xmlns:xlink="http://www.w3.org/1999/xlink" x="0px" y="0px"
	 viewBox="0 0 283.5 368.5" style="enable-background:new 0 0 283.5 368.5;" xml:space="preserve">
<style type="text/css">
	.st0{fill:#98DBED;}
	.st1{enable-background:new    ;}
	.st2{fill:#FFFFFF;}
</style>
<g>
	<rect y="0" class="st0" width="316" height="316"/>
</g>
<g class="st1">
	<path class="st2" d="M165.9,69.8c-23.6,0-42,7.6-55.1,22.8c-13.1,15.2-19.7,36-19.7,62.4c0,26.1,6.8,47.2,20.5,63
		c13.7,15.9,32.2,23.8,55.5,23.8c29.9,0,52.3-14.8,67.4-44.4l23.6,11.8c-8.8,18.4-21.1,32.3-37,41.9c-15.9,9.6-34.3,14.4-55.3,14.4
		c-21.5,0-40.1-4.5-55.8-13.4c-15.7-8.9-27.7-21.7-35.9-38.3c-8.2-16.6-12.3-36.3-12.3-59c0-34,9.2-60.6,27.5-79.9
		c18.4-19.3,43.8-28.9,76.3-28.9c22.7,0,41.7,4.4,56.9,13.3c15.2,8.9,26.4,22,33.6,39.5l-27.4,9.1c-4.9-12.4-12.9-21.9-23.8-28.5
		C194,73.1,181,69.8,165.9,69.8z"/>
</g>
</svg>
