<?xml version="1.0" encoding="utf-8"?>
<!-- Generator: Adobe Illustrator 21.0.0, SVG Export Plug-In . SVG Version: 6.00 Build 0)  -->
<svg version="1.1" id="Layer_1" xmlns="http://www.w3.org/2000/svg" xmlns:xlink="http://www.w3.org/1999/xlink" x="0px" y="0px"
	 viewBox="0 0 124.6 124.6" style="enable-background:new 0 0 124.6 124.6;" xml:space="preserve">
<style type="text/css">
	.st0{fill:none;stroke:#000000;stroke-miterlimit:10;}
	.st1{fill:#98D8ED;}
</style>
<title>carbon1</title>
<path class="st0" d="M118.1,62.4c-0.1-31-25.4-56.1-56.4-56S5.6,31.8,5.7,62.8c0.1,31,25.2,56,56.2,56
	C93,118.8,118.2,93.6,118.1,62.4C118.1,62.5,118.1,62.5,118.1,62.4z"/>
<path class="st0" d="M62,100c-20.8,0.1-37.7-16.7-37.7-37.5s16.7-37.7,37.5-37.7c20.8-0.1,37.7,16.7,37.7,37.5c0,0,0,0.1,0,0.1
	C99.5,83.2,82.7,100,62,100C62,100,62,100,62,100z"/>
<circle class="st1" cx="62.2" cy="5.8" r="3.7"/>
<circle class="st1" cx="62.2" cy="118.7" r="3.7"/>
<circle class="st1" cx="5.8" cy="63.1" r="3.7"/>
<circle class="st1" cx="118.7" cy="63.1" r="3.7"/>
<circle class="st1" cx="24.3" cy="62.2" r="3.7"/>
<circle class="st1" cx="99.2" cy="63.1" r="3.7"/>
<circle class="st1" cx="62.6" cy="62.7" r="15"/>
</svg>
