<?xml version="1.0" encoding="utf-8"?>
<!-- Generator: Adobe Illustrator 21.0.0, SVG Export Plug-In . SVG Version: 6.00 Build 0)  -->
<svg version="1.1" id="Layer_1" xmlns="http://www.w3.org/2000/svg" xmlns:xlink="http://www.w3.org/1999/xlink" x="0px" y="0px"
	 viewBox="0 0 283.5 283.5" style="enable-background:new 0 0 283.5 283.5;" xml:space="preserve">
<style type="text/css">
	.st0{fill:#EDBA88;}
	.st1{fill:#E29854;}
	.st2{fill:#FFFFFF;stroke:#000000;stroke-miterlimit:10;}
	.st3{fill:#FFFFFF;}
</style>
<g>
	<rect x="72.6" y="20" class="st0" width="130.4" height="237"/>
	<g>
		<path class="st1" d="M203,255.5c-38.1,0-76.2,0-114.3,0c-5.4,0-10.7,0-16.1,0c0.5,0.5,1,1,1.5,1.5c0-26.7,0-53.5,0-80.2
			c0-42.6,0-85.1,0-127.7c0-9.7,0-19.4,0-29.1c-0.5,0.5-1,1-1.5,1.5c38.1,0,76.2,0,114.3,0c5.4,0,10.7,0,16.1,0
			c-0.5-0.5-1-1-1.5-1.5c0,26.7,0,53.5,0,80.2c0,42.6,0,85.1,0,127.7c0,9.7,0,19.4,0,29.1c0,1.9,3,1.9,3,0c0-26.7,0-53.5,0-80.2
			c0-42.6,0-85.1,0-127.7c0-9.7,0-19.4,0-29.1c0-0.8-0.7-1.5-1.5-1.5c-38.1,0-76.2,0-114.3,0c-5.4,0-10.7,0-16.1,0
			c-0.8,0-1.5,0.7-1.5,1.5c0,26.7,0,53.5,0,80.2c0,42.6,0,85.1,0,127.7c0,9.7,0,19.4,0,29.1c0,0.8,0.7,1.5,1.5,1.5
			c38.1,0,76.2,0,114.3,0c5.4,0,10.7,0,16.1,0C204.9,258.5,204.9,255.5,203,255.5z"/>
	</g>
</g>
<g>
	<rect x="88.8" y="39" class="st0" width="97.2" height="197.2"/>
	<g>
		<path class="st1" d="M186,234.6c-28.3,0-56.6,0-84.9,0c-4.1,0-8.2,0-12.3,0c0.5,0.5,1,1,1.5,1.5c0-22.2,0-44.4,0-66.6
			c0-35.4,0-70.8,0-106.2c0-8.1,0-16.2,0-24.3c-0.5,0.5-1,1-1.5,1.5c28.3,0,56.6,0,84.9,0c4.1,0,8.2,0,12.3,0c-0.5-0.5-1-1-1.5-1.5
			c0,22.2,0,44.4,0,66.6c0,35.4,0,70.8,0,106.2c0,8.1,0,16.2,0,24.3c0,1.9,3,1.9,3,0c0-22.2,0-44.4,0-66.6c0-35.4,0-70.8,0-106.2
			c0-8.1,0-16.2,0-24.3c0-0.8-0.7-1.5-1.5-1.5c-28.3,0-56.6,0-84.9,0c-4.1,0-8.2,0-12.3,0c-0.8,0-1.5,0.7-1.5,1.5
			c0,22.2,0,44.4,0,66.6c0,35.4,0,70.8,0,106.2c0,8.1,0,16.2,0,24.3c0,0.8,0.7,1.5,1.5,1.5c28.3,0,56.6,0,84.9,0c4.1,0,8.2,0,12.3,0
			C188,237.6,188,234.6,186,234.6z"/>
	</g>
</g>
<g>
	<g>
		<path class="st1" d="M90.2,38.4c-5.4-6.3-10.8-12.6-16.2-19c-1.3-1.5-3.4,0.7-2.1,2.1c5.4,6.3,10.8,12.6,16.2,19
			C89.4,42,91.5,39.8,90.2,38.4L90.2,38.4z"/>
	</g>
</g>
<path class="st2" d="M186.4,38.5"/>
<g>
	<g>
		<path class="st1" d="M186.7,40.5c5.7-6.3,11.3-12.6,17-19c1.3-1.4-0.8-3.6-2.1-2.1c-5.7,6.3-11.3,12.6-17,19
			C183.3,39.8,185.4,41.9,186.7,40.5L186.7,40.5z"/>
	</g>
</g>
<g>
	<g>
		<path class="st1" d="M184.6,236.7c5.7,7,11.3,13.9,17,20.9c1.2,1.5,3.3-0.6,2.1-2.1c-5.7-7-11.3-13.9-17-20.9
			C185.5,233.1,183.4,235.2,184.6,236.7L184.6,236.7z"/>
	</g>
</g>
<g>
	<g>
		<path class="st1" d="M74,257.6c5.4-7,10.8-13.9,16.2-20.9c1.2-1.5-0.9-3.6-2.1-2.1c-5.4,7-10.8,13.9-16.2,20.9
			C70.7,257,72.9,259.1,74,257.6L74,257.6z"/>
	</g>
</g>
<g>
	<g>
		<path class="st1" d="M89.5,188.2c28.3-12.2,56.6-24.4,84.8-36.5c4-1.7,8-3.5,12-5.2c1.8-0.8,0.2-3.3-1.5-2.6
			c-28.3,12.2-56.6,24.4-84.8,36.5c-4,1.7-8,3.5-12,5.2C86.3,186.4,87.8,189,89.5,188.2L89.5,188.2z"/>
	</g>
</g>
<g>
	<g>
		<path class="st1" d="M89.5,214.2c28.3-12.2,56.6-24.4,84.8-36.5c4-1.7,8-3.5,12-5.2c1.8-0.8,0.2-3.3-1.5-2.6
			c-28.3,12.2-56.6,24.4-84.8,36.5c-4,1.7-8,3.5-12,5.2C86.3,212.4,87.8,215,89.5,214.2L89.5,214.2z"/>
	</g>
</g>
<g>
	<g>
		<path class="st1" d="M89.5,94.2c28.3-12.2,56.6-24.4,84.8-36.5c4-1.7,8-3.5,12-5.2c1.8-0.8,0.2-3.3-1.5-2.6
			c-28.3,12.2-56.6,24.4-84.8,36.5c-4,1.7-8,3.5-12,5.2C86.3,92.4,87.8,95,89.5,94.2L89.5,94.2z"/>
	</g>
</g>
<g>
	<g>
		<circle class="st3" cx="110.8" cy="114.8" r="21.8"/>
		<g>
			<path d="M131.4,114.8c-0.3,11.2-9.1,20.6-20.6,20.6c-11.2,0-20.6-9.4-20.6-20.6c0-11,9-20.2,19.9-20.6
				C121.8,93.7,131,103.3,131.4,114.8c0,1.4,2.3,1.5,2.2,0c-0.4-12.4-10.1-22.9-22.9-22.9c-12.5,0-22.9,10.4-22.9,22.9
				s10.4,22.9,22.9,22.9c12.7,0,22.5-10.4,22.9-22.9C133.7,113.3,131.4,113.3,131.4,114.8z"/>
		</g>
	</g>
	<circle class="st1" cx="110.4" cy="114.4" r="16.6"/>
	<circle cx="110.4" cy="114.4" r="10.6"/>
	<circle class="st3" cx="114.7" cy="110.2" r="2.7"/>
	<circle class="st3" cx="118.3" cy="113.8" r="1.5"/>
</g>
<g>
	<circle class="st3" cx="164.8" cy="116.8" r="21.8"/>
	<g>
		<path d="M185.4,116.8c-0.3,11.2-9.1,20.6-20.6,20.6c-11.2,0-20.6-9.4-20.6-20.6c0-11,9-20.2,19.9-20.6
			C175.8,95.7,185,105.3,185.4,116.8c0,1.4,2.3,1.5,2.2,0c-0.4-12.4-10.1-22.9-22.9-22.9c-12.5,0-22.9,10.4-22.9,22.9
			s10.4,22.9,22.9,22.9c12.7,0,22.5-10.4,22.9-22.9C187.7,115.3,185.4,115.3,185.4,116.8z"/>
	</g>
</g>
<circle class="st1" cx="164.4" cy="116.4" r="16.6"/>
<circle cx="164.4" cy="116.4" r="10.6"/>
<circle class="st3" cx="168.7" cy="112.2" r="2.7"/>
<circle class="st3" cx="172.3" cy="115.8" r="1.5"/>
</svg>
