<?xml version="1.0" encoding="utf-8"?>
<!-- Generator: Adobe Illustrator 21.0.0, SVG Export Plug-In . SVG Version: 6.00 Build 0)  -->
<svg version="1.1" id="Layer_1" xmlns="http://www.w3.org/2000/svg" xmlns:xlink="http://www.w3.org/1999/xlink" x="0px" y="0px"
	 viewBox="0 0 283.5 283.5" style="enable-background:new 0 0 283.5 283.5;" xml:space="preserve">
<style type="text/css">
	.st0{fill:none;stroke:#000000;stroke-miterlimit:10;}
	.st1{fill:#EDBA88;}
	.st2{fill:#F4F498;}
</style>
<g>
	<g>
		<path class="st0" d="M236.8,142.3c0-53.8-43.4-97.3-97-97.3s-97,43.5-97,97.3s43.4,97.3,97,97.3S236.8,196.1,236.8,142.3z"/>
		<path class="st0" d="M139.8,220.2c-42.9,0-77.6-34.8-77.6-77.9s34.7-77.9,77.6-77.9s77.6,34.8,77.6,77.9S182.7,220.2,139.8,220.2z
			"/>
		<path class="st0" d="M198,142.3c0-32.3-26-58.4-58.2-58.4S81.6,110,81.6,142.3s26,58.4,58.2,58.4S198,174.6,198,142.3z"/>
		<path class="st0" d="M139.8,181.2c-21.4,0-38.8-17.4-38.8-38.9c0-21.5,17.4-38.9,38.8-38.9s38.8,17.4,38.8,38.9
			C178.6,163.8,161.3,181.2,139.8,181.2z"/>
	</g>
</g>
<circle class="st1" cx="43.4" cy="125" r="3.8"/>
<circle class="st1" cx="55" cy="91.6" r="3.8"/>
<circle class="st1" cx="78.1" cy="68" r="3.8"/>
<circle class="st1" cx="106.7" cy="50.9" r="3.8"/>
<circle class="st1" cx="236.8" cy="158" r="3.8"/>
<circle class="st1" cx="235.2" cy="124.6" r="3.8"/>
<circle class="st1" cx="224.1" cy="93" r="3.8"/>
<circle class="st1" cx="201.5" cy="67.9" r="3.8"/>
<circle class="st1" cx="173.3" cy="51.2" r="3.8"/>
<circle class="st2" cx="140.1" cy="45.3" r="3.8"/>
<circle class="st1" cx="43" cy="158.4" r="3.8"/>
<circle class="st1" cx="55.1" cy="191" r="3.8"/>
<circle class="st1" cx="76.7" cy="217.1" r="3.8"/>
<circle class="st1" cx="225.2" cy="191.4" r="3.8"/>
<circle class="st1" cx="203.1" cy="217" r="3.8"/>
<circle class="st1" cx="173.5" cy="234.1" r="3.8"/>
<circle class="st1" cx="106.3" cy="234.9" r="3.8"/>
<circle class="st1" cx="140.1" cy="239.8" r="3.8"/>
<circle class="st1" cx="114.4" cy="70.2" r="3.8"/>
<circle class="st1" cx="140.1" cy="64.4" r="3.8"/>
<circle class="st1" cx="189.8" cy="82.2" r="3.8"/>
<circle class="st1" cx="206.7" cy="103.4" r="3.8"/>
<circle class="st1" cx="140.1" cy="45.3" r="3.8"/>
<circle class="st1" cx="90.5" cy="82.4" r="3.8"/>
<circle class="st1" cx="72.2" cy="103.3" r="3.8"/>
<circle class="st1" cx="216" cy="128.3" r="3.8"/>
<circle class="st1" cx="217.7" cy="155" r="3.8"/>
<circle class="st1" cx="207.9" cy="180.7" r="3.8"/>
<circle class="st1" cx="62.5" cy="128" r="3.8"/>
<circle class="st1" cx="62.2" cy="155.7" r="3.8"/>
<circle class="st1" cx="72.5" cy="180.6" r="3.8"/>
<circle class="st1" cx="89.4" cy="201.9" r="3.8"/>
<circle class="st1" cx="140.1" cy="220.6" r="3.8"/>
<circle class="st1" cx="166.8" cy="215.9" r="3.8"/>
<circle class="st1" cx="190.7" cy="201.6" r="3.8"/>
<circle class="st1" cx="112.8" cy="216.7" r="3.8"/>
<circle class="st1" cx="166.5" cy="69.4" r="3.8"/>
<circle class="st1" cx="140.1" cy="83.6" r="3.8"/>
<circle class="st1" cx="140.1" cy="200.5" r="3.8"/>
<circle class="st1" cx="81.6" cy="143" r="3.8"/>
<circle class="st1" cx="198.5" cy="143" r="3.8"/>
<circle class="st1" cx="98.9" cy="100.8" r="3.8"/>
<circle class="st1" cx="181.3" cy="100.8" r="3.8"/>
<circle class="st1" cx="98.9" cy="183.2" r="3.8"/>
<circle class="st1" cx="181.3" cy="184.2" r="3.8"/>
<circle class="st1" cx="100.8" cy="142" r="3.8"/>
<circle class="st1" cx="178.4" cy="143" r="3.8"/>
<circle class="st1" cx="139.5" cy="142.5" r="15.5"/>
</svg>
