<?xml version="1.0" encoding="utf-8"?>
<!-- Generator: Adobe Illustrator 21.0.0, SVG Export Plug-In . SVG Version: 6.00 Build 0)  -->
<svg version="1.1" id="Layer_1" xmlns="http://www.w3.org/2000/svg" xmlns:xlink="http://www.w3.org/1999/xlink" x="0px" y="0px"
	 viewBox="0 0 283.5 283.5" style="enable-background:new 0 0 283.5 283.5;" xml:space="preserve">
<style type="text/css">
	.st0{fill:none;stroke:#000000;stroke-miterlimit:10;}
	.st1{fill:#EDBA88;}
	.st2{fill:#F4F498;}
</style>
<g>
	<g>
		<path class="st0" d="M274.3,141.4C274.3,67.5,214.6,7.7,141,7.7S7.7,67.5,7.7,141.4S67.3,275.1,141,275.1S274.3,215.4,274.3,141.4
			z"/>
		<path class="st0" d="M141,248.5c-59,0-106.6-47.8-106.6-107.1S82,34.4,141,34.4s106.6,47.8,106.6,107.1S199.9,248.5,141,248.5z"/>
		<path class="st0" d="M221,141.4c0-44.4-35.7-80.3-80-80.3S61,97,61,141.4s35.7,80.3,80,80.3S221,185.8,221,141.4z"/>
		<path class="st0" d="M141,194.9c-29.4,0-53.3-23.9-53.3-53.5S111.6,88,141,88s53.3,23.9,53.3,53.5S170.5,194.9,141,194.9z"/>
	</g>
</g>
<circle class="st1" cx="8.5" cy="117.7" r="5.2"/>
<circle class="st1" cx="24.5" cy="71.8" r="5.2"/>
<circle class="st1" cx="56.2" cy="39.3" r="5.2"/>
<circle class="st1" cx="95.5" cy="15.8" r="5.2"/>
<circle class="st1" cx="274.3" cy="163" r="5.2"/>
<circle class="st1" cx="272.1" cy="117.1" r="5.2"/>
<circle class="st1" cx="256.8" cy="73.7" r="5.2"/>
<circle class="st1" cx="225.8" cy="39.2" r="5.2"/>
<circle class="st1" cx="187" cy="16.2" r="5.2"/>
<circle class="st2" cx="141.4" cy="8.1" r="5.2"/>
<circle class="st1" cx="8" cy="163.6" r="5.2"/>
<circle class="st1" cx="24.6" cy="208.4" r="5.2"/>
<circle class="st1" cx="54.3" cy="244.2" r="5.2"/>
<circle class="st1" cx="258.3" cy="208.9" r="5.2"/>
<circle class="st1" cx="228" cy="244.1" r="5.2"/>
<circle class="st1" cx="187.3" cy="267.6" r="5.2"/>
<circle class="st1" cx="94.9" cy="268.7" r="5.2"/>
<circle class="st1" cx="141.4" cy="275.4" r="5.2"/>
<circle class="st1" cx="106.1" cy="42.4" r="5.2"/>
<circle class="st1" cx="141.4" cy="34.4" r="5.2"/>
<circle class="st1" cx="209.7" cy="58.8" r="5.2"/>
<circle class="st1" cx="232.9" cy="88" r="5.2"/>
<circle class="st1" cx="141.4" cy="8.1" r="5.2"/>
<circle class="st1" cx="73.2" cy="59.1" r="5.2"/>
<circle class="st1" cx="48.1" cy="87.8" r="5.2"/>
<circle class="st1" cx="245.7" cy="122.2" r="5.2"/>
<circle class="st1" cx="248" cy="158.9" r="5.2"/>
<circle class="st1" cx="234.6" cy="194.2" r="5.2"/>
<circle class="st1" cx="34.8" cy="121.8" r="5.2"/>
<circle class="st1" cx="34.3" cy="159.9" r="5.2"/>
<circle class="st1" cx="48.5" cy="194.1" r="5.2"/>
<circle class="st1" cx="71.7" cy="223.3" r="5.2"/>
<circle class="st1" cx="141.4" cy="249" r="5.2"/>
<circle class="st1" cx="178.1" cy="242.6" r="5.2"/>
<circle class="st1" cx="210.9" cy="222.9" r="5.2"/>
<circle class="st1" cx="103.9" cy="243.7" r="5.2"/>
<circle class="st1" cx="177.7" cy="41.3" r="5.2"/>
<circle class="st1" cx="141.4" cy="60.8" r="5.2"/>
<circle class="st1" cx="141.4" cy="221.4" r="5.2"/>
<circle class="st1" cx="61" cy="142.4" r="5.2"/>
<circle class="st1" cx="221.7" cy="142.4" r="5.2"/>
<circle class="st1" cx="84.8" cy="84.4" r="5.2"/>
<circle class="st1" cx="198" cy="84.4" r="5.2"/>
<circle class="st1" cx="84.8" cy="197.6" r="5.2"/>
<circle class="st1" cx="198" cy="199" r="5.2"/>
<circle class="st1" cx="87.4" cy="141" r="5.2"/>
<circle class="st1" cx="194" cy="142.4" r="5.2"/>
<circle class="st1" cx="140.6" cy="141.7" r="21.3"/>
</svg>
