<?xml version="1.0" encoding="utf-8"?>
<!-- Generator: Adobe Illustrator 21.0.0, SVG Export Plug-In . SVG Version: 6.00 Build 0)  -->
<svg version="1.1" id="Layer_1" xmlns="http://www.w3.org/2000/svg" xmlns:xlink="http://www.w3.org/1999/xlink" x="0px" y="0px"
	 viewBox="0 0 283.5 368.5" style="enable-background:new 0 0 283.5 368.5;" xml:space="preserve">
<style type="text/css">
	.st0{fill:#EDBA88;}
	.st1{enable-background:new    ;}
	.st2{fill:#FFFFFF;}
</style>
<g>
	<rect y="0" class="st0" width="316" height="316"/>
</g>
<g class="st1">
	<path class="st2" d="M158.8,125.5c0,15.6-5.1,28-15.3,37.3c-10.2,9.2-24,13.8-41.5,13.8H53.4V241H31V75.9h69.5
		c18.5,0,32.9,4.3,43,13C153.7,97.5,158.8,109.8,158.8,125.5z M136.3,125.8c0-21.3-12.8-32-38.4-32H53.4v65.2h45.4
		C123.8,158.9,136.3,147.9,136.3,125.8z"/>
	<path class="st2" d="M267.6,220.6c-3.9,8.1-9.1,13.9-15.5,17.5s-14.4,5.3-24,5.3c-16,0-27.8-5.4-35.3-16.2
		c-7.5-10.8-11.3-27.1-11.3-49c0-44.2,15.5-66.3,46.6-66.3c9.6,0,17.6,1.8,24,5.3c6.4,3.5,11.6,9.1,15.5,16.8h0.2l-0.2-14.2V67.1
		h21.1v147.8c0,13.2,0.2,21.9,0.7,26.1h-20.2c-0.2-1.2-0.5-4.1-0.8-8.7c-0.3-4.5-0.4-8.4-0.4-11.7H267.6z M203.7,177.5
		c0,17.7,2.3,30.4,7,38.1c4.7,7.7,12.3,11.5,22.9,11.5c12,0,20.6-4.1,26-12.4c5.4-8.3,8.1-21.1,8.1-38.6c0-16.8-2.7-29.1-8.1-36.9
		c-5.4-7.8-14-11.7-25.8-11.7c-10.6,0-18.3,3.9-23,11.8C206,147.1,203.7,159.8,203.7,177.5z"/>
</g>
</svg>
