<?xml version="1.0" encoding="utf-8"?>
<!-- Generator: Adobe Illustrator 21.0.0, SVG Export Plug-In . SVG Version: 6.00 Build 0)  -->
<svg version="1.1" id="Layer_1" xmlns="http://www.w3.org/2000/svg" xmlns:xlink="http://www.w3.org/1999/xlink" x="0px" y="0px"
	 viewBox="0 0 283.5 283.5" style="enable-background:new 0 0 283.5 283.5;" xml:space="preserve">
<style type="text/css">
	.st0{fill:#D2B0E2;}
	.st1{fill:#660BD1;}
	.st2{fill:#FFFFFF;}
</style>
<g>
	<rect x="100.1" y="75.9" class="st0" width="114.4" height="114.4"/>
</g>
<g>
	<g>
		<path class="st0" d="M201.2,252l2.5-49.9l-63.6-1.6c0.9-57.1,1.9-114.1,2.8-171.3c12.1-1,36.6-1.3,57.1,14.2
			c15.2,11.5,22,26.7,25.5,37.8c20.1,63.6,35.5,170.9,35.5,170.9H201.2z"/>
		<g>
			<path class="st1" d="M203.4,252c0.9-16.6,1.6-33.3,2.5-49.9c0-1.2-1-2.2-2.2-2.2c-21.2-0.6-42.5-1-63.6-1.6
				c0.7,0.7,1.5,1.5,2.2,2.2c0.9-57.1,1.9-114.1,2.8-171.3c-0.7,0.7-1.5,1.5-2.2,2.2c23.2-1.9,46.8,3.4,63.5,20.7
				c14.9,15.5,19.6,36.9,24.8,56.9c9.9,38.4,17.1,77.3,23.5,116.4c1.5,9,2.9,18.1,4.2,27c0.7-0.9,1.5-1.9,2-2.8
				c-19.8,0-39.7,0-59.7,0c-2.8,0-2.8,4.4,0,4.4c19.8,0,39.7,0,59.7,0c1.6,0,2.3-1.5,2-2.8c-3.9-27.3-8.6-54.6-14-81.6
				c-4.2-22-9-44.1-14.7-65.8c-5.1-19.3-10.1-39.3-24.1-54.3c-17.4-18.7-42.8-24.8-67.4-22.8c-1.2,0.1-2.2,0.9-2.2,2.2
				c-0.9,57.1-1.9,114.1-2.8,171.3c0,1.2,1,2.2,2.2,2.2c21.2,0.6,42.5,1,63.6,1.6c-0.7-0.7-1.5-1.5-2.2-2.2
				c-0.9,16.6-1.6,33.3-2.5,49.9C198.9,254.8,203.3,254.8,203.4,252z"/>
		</g>
	</g>
	<g>
		<path class="st1" d="M89.3,252.3l-2.5-49.9l63.6-1.6c-0.9-57.1-1.9-114.1-2.8-171.3c-12.1-1-36.6-1.3-57.1,14.2
			c-15.2,11.5-22,26.7-25.5,37.8C45,145.2,29.6,252.3,29.6,252.3H89.3z"/>
		<g>
			<path class="st1" d="M91.5,252.3c-0.9-16.6-1.6-33.3-2.5-49.9c-0.7,0.7-1.5,1.5-2.2,2.2c21.2-0.6,42.5-1,63.6-1.6
				c1.2,0,2.2-1,2.2-2.2c-0.9-57.1-1.9-114.1-2.8-171.3c0-1.3-1-2-2.2-2.2c-21-1.8-42.6,2.3-59.5,15.6c-17.4,13.7-24.2,33.4-29.9,54
				c-11.2,40.7-19,82.6-26,124.2c-1.8,10.2-3.4,20.4-4.8,30.6c-0.1,1.3,0.6,2.8,2,2.8c19.8,0,39.7,0,59.7,0c2.8,0,2.8-4.4,0-4.4
				c-19.8,0-39.7,0-59.7,0c0.7,0.9,1.5,1.9,2,2.8c3.5-24.7,7.7-49.3,12.4-73.8c3.9-20.7,8.2-41.4,13.3-61.9
				c4.7-19,8.8-40.4,20.1-56.8c16.1-22.9,43.2-30.9,70-28.7c-0.7-0.7-1.5-1.5-2.2-2.2c0.9,57.1,1.9,114.1,2.8,171.3
				c0.7-0.7,1.5-1.5,2.2-2.2c-21.2,0.6-42.5,1-63.6,1.6c-1.2,0-2.2,1-2.2,2.2c0.9,16.6,1.6,33.3,2.5,49.9
				C87.3,255.2,91.6,255.2,91.5,252.3z"/>
		</g>
	</g>
</g>
<g>
	<g>
		<ellipse class="st2" cx="125.8" cy="106.9" rx="18.8" ry="20.3"/>
		<g>
			<path d="M105.4,106.9c0.6,11.2,8.3,22,20.4,22c11.7,0,20.4-10.7,20.4-22c0-11.2-8.6-22-20.4-22
				C113.7,84.9,105.9,95.6,105.4,106.9c-0.1,2,3.2,2,3.2,0c0.4-9.5,6.9-18.7,17.2-18.7c9.9,0,17.2,9.2,17.2,18.7
				c0,8.9-6.3,17.5-15.5,18.5c-11.1,1.2-18.4-8.3-18.8-18.5C108.6,104.8,105.4,104.8,105.4,106.9z"/>
		</g>
	</g>
	<ellipse class="st0" cx="125.6" cy="107.2" rx="10.9" ry="10.8"/>
	<g>
		<ellipse cx="125.9" cy="107.2" rx="7" ry="6.9"/>
	</g>
</g>
<g>
	<g>
		<ellipse class="st2" cx="175.4" cy="106.9" rx="18.8" ry="20.3"/>
		<g>
			<path d="M192.5,106.9c-0.4,9.5-6.9,18.7-17.2,18.7c-9.9,0-17.2-9.2-17.2-18.7c0-8.9,6.3-17.5,15.5-18.5
				C184.7,87.2,192,96.7,192.5,106.9c0.1,2,3.4,2,3.2,0c-0.6-11.2-8.3-22-20.4-22c-11.7,0-20.4,10.7-20.4,22c0,11.2,8.6,22,20.4,22
				c12.1,0,19.8-10.7,20.4-22C196,104.8,192.6,104.8,192.5,106.9z"/>
		</g>
	</g>
	<ellipse class="st1" cx="175.5" cy="107.2" rx="10.9" ry="10.8"/>
	<g>
		<ellipse cx="175.3" cy="107.2" rx="7" ry="6.9"/>
	</g>
</g>
<g>
	<g>
		<path d="M127.5,84.2c0-4.4,0-8.8,0-13.1c0-2-3.2-2.2-3.2,0c0,4.4,0,8.8,0,13.1C124.3,86.2,127.5,86.4,127.5,84.2L127.5,84.2z"/>
	</g>
</g>
<g>
	<g>
		<path d="M136.7,88c1.6-4.4,3.2-8.8,4.8-13.1c0.7-2-2.5-2.8-3.2-0.9c-1.6,4.4-3.2,8.8-4.8,13.1C132.9,89,136,89.9,136.7,88
			L136.7,88z"/>
	</g>
</g>
<g>
	<g>
		<path d="M118.2,87.1c-1.6-4.4-3.2-8.8-4.8-13.1c-0.7-1.9-3.9-1.2-3.2,0.9c1.6,4.4,3.2,8.8,4.8,13.1
			C115.9,89.9,118.9,89,118.2,87.1L118.2,87.1z"/>
	</g>
</g>
<g>
	<g>
		<path d="M177.1,84.9c0-4.4,0-8.8,0-13.1c0-2-3.2-2.2-3.2,0c0,4.4,0,8.8,0,13.1C173.9,87,177.1,87.1,177.1,84.9L177.1,84.9z"/>
	</g>
</g>
<g>
	<g>
		<path d="M186.3,88.7c1.6-4.4,3.2-8.8,4.8-13.1c0.7-2-2.5-2.8-3.2-0.9c-1.6,4.4-3.2,8.8-4.8,13.1C182.5,89.7,185.6,90.6,186.3,88.7
			L186.3,88.7z"/>
	</g>
</g>
<g>
	<g>
		<path d="M167.8,87.8c-1.6-4.4-3.2-8.8-4.8-13.1c-0.7-1.9-3.9-1.2-3.2,0.9c1.6,4.4,3.2,8.8,4.8,13.1
			C165.5,90.6,168.5,89.7,167.8,87.8L167.8,87.8z"/>
	</g>
</g>
</svg>
