<svg id="Layer_1" data-name="Layer 1" xmlns="http://www.w3.org/2000/svg" viewBox="0 0 202.15 195.69"><defs><style>.cls-1{fill:none;stroke:#000;stroke-miterlimit:10;}.cls-2{fill:#d2b0e2;}</style></defs><title>titanium1</title><path class="cls-1" d="M236.84,142.28a97,97,0,1,0-97,97.35A97.12,97.12,0,0,0,236.84,142.28Z" transform="translate(-38.53 -44.44)"/><path class="cls-1" d="M139.84,220.16a77.88,77.88,0,1,1,77.6-77.88A77.69,77.69,0,0,1,139.84,220.16Z" transform="translate(-38.53 -44.44)"/><path class="cls-1" d="M198,142.28a58.2,58.2,0,1,0-58.2,58.41A58.27,58.27,0,0,0,198,142.28Z" transform="translate(-38.53 -44.44)"/><path class="cls-1" d="M139.84,181.22a38.94,38.94,0,1,1,38.8-38.94A38.85,38.85,0,0,1,139.84,181.22Z" transform="translate(-38.53 -44.44)"/><circle class="cls-2" cx="3.83" cy="97.61" r="3.83"/><circle class="cls-2" cx="198.32" cy="97.61" r="3.83"/><circle class="cls-2" cx="71.85" cy="25.75" r="3.83"/><circle class="cls-2" cx="101.55" cy="20" r="3.83"/><circle class="cls-2" cx="156.16" cy="43" r="3.83"/><circle class="cls-2" cx="46.95" cy="43" r="3.83"/><circle class="cls-2" cx="179.16" cy="97.61" r="3.83"/><circle class="cls-2" cx="23.95" cy="97.61" r="3.83"/><circle class="cls-2" cx="45.99" cy="153.17" r="3.83"/><circle class="cls-2" cx="101.55" cy="176.17" r="3.83"/><circle class="cls-2" cx="131.25" cy="169.46" r="3.83"/><circle class="cls-2" cx="156.16" cy="153.17" r="3.83"/><circle class="cls-2" cx="101.55" cy="39.16" r="3.83"/><circle class="cls-2" cx="101.55" cy="156.05" r="3.83"/><circle class="cls-2" cx="43.11" cy="98.56" r="3.83"/><circle class="cls-2" cx="160" cy="98.56" r="3.83"/><circle class="cls-2" cx="60.36" cy="56.41" r="3.83"/><circle class="cls-2" cx="142.75" cy="56.41" r="3.83"/><circle class="cls-2" cx="60.36" cy="138.8" r="3.83"/><circle class="cls-2" cx="142.75" cy="139.76" r="3.83"/><circle class="cls-2" cx="62.27" cy="97.61" r="3.83"/><circle class="cls-2" cx="139.88" cy="98.56" r="3.83"/><circle class="cls-2" cx="99.97" cy="99.06" r="15.5"/></svg>