<?xml version="1.0" encoding="utf-8"?>
<!-- Generator: Adobe Illustrator 21.0.0, SVG Export Plug-In . SVG Version: 6.00 Build 0)  -->
<svg version="1.1" id="Layer_1" xmlns="http://www.w3.org/2000/svg" xmlns:xlink="http://www.w3.org/1999/xlink" x="0px" y="0px"
	 viewBox="0 0 283.5 283.5" style="enable-background:new 0 0 283.5 283.5;" xml:space="preserve">
<style type="text/css">
	.st0{fill:none;stroke:#000000;stroke-miterlimit:10;}
	.st1{fill:#D2B0E2;}
</style>
<g>
	<g>
		<path class="st0" d="M273.1,141.5c0-72.6-58.6-131.3-130.9-131.3S11.3,69,11.3,141.5s58.6,131.3,130.9,131.3
			S273.1,214.1,273.1,141.5z"/>
		<path class="st0" d="M142.2,246.7c-57.9,0-104.7-47-104.7-105.1S84.3,36.4,142.2,36.4s104.7,47,104.7,105.1
			S200.1,246.7,142.2,246.7z"/>
		<path class="st0" d="M220.7,141.5c0-43.6-35.1-78.8-78.5-78.8S63.7,98,63.7,141.5s35.1,78.8,78.5,78.8S220.7,185.1,220.7,141.5z"
			/>
		<path class="st0" d="M142.2,194c-28.9,0-52.4-23.5-52.4-52.5s23.5-52.5,52.4-52.5s52.4,23.5,52.4,52.5S171.2,194,142.2,194z"/>
	</g>
</g>
<circle class="st1" cx="10.8" cy="141.1" r="5.1"/>
<circle class="st1" cx="273.1" cy="141.1" r="5.1"/>
<circle class="st1" cx="79.6" cy="57.8" r="5.1"/>
<circle class="st1" cx="142.6" cy="36.4" r="5.1"/>
<circle class="st1" cx="204.1" cy="56.7" r="5.1"/>
<circle class="st1" cx="43.3" cy="109.3" r="5.1"/>
<circle class="st1" cx="241.9" cy="108.8" r="5.1"/>
<circle class="st1" cx="43.3" cy="174.9" r="5.1"/>
<circle class="st1" cx="81.1" cy="227" r="5.1"/>
<circle class="st1" cx="142.6" cy="247.2" r="5.1"/>
<circle class="st1" cx="204.3" cy="227.4" r="5.1"/>
<circle class="st1" cx="241.9" cy="174.3" r="5.1"/>
<circle class="st1" cx="142.6" cy="62.3" r="5.1"/>
<circle class="st1" cx="142.6" cy="220.1" r="5.1"/>
<circle class="st1" cx="63.7" cy="142.5" r="5.1"/>
<circle class="st1" cx="221.4" cy="142.5" r="5.1"/>
<circle class="st1" cx="87" cy="85.6" r="5.1"/>
<circle class="st1" cx="198.2" cy="85.6" r="5.1"/>
<circle class="st1" cx="87" cy="196.7" r="5.1"/>
<circle class="st1" cx="198.2" cy="198.1" r="5.1"/>
<circle class="st1" cx="89.6" cy="141.1" r="5.1"/>
<circle class="st1" cx="194.3" cy="142.5" r="5.1"/>
<circle class="st1" cx="140.5" cy="143.2" r="20.9"/>
</svg>
